<svg width="980" height="3047" viewBox="0 0 980 3047" fill="none" xmlns="http://www.w3.org/2000/svg">
<path d="M172.955 94.9762L230.987 87.0615L275.831 121.358L296.933 184.676L286.382 255.908L246.815 311.31L209.885 313.948L211.704 258.074L180.928 218.898L165.042 168.846L172.955 94.9762Z" fill="white"/>
<path d="M141.301 182.037L135.229 234.754L108.183 268.333L85.8008 275.796L108.183 292.585L131.499 286.056L160.41 240.351L159.89 235.684L153.171 175.441L141.301 182.037Z" fill="#333333"/>
<path d="M795.484 614.705L769.106 670.108L740.09 638.449L542.252 519.729L536.977 543.473H497.409L463.117 590.961L415.636 609.429L383.982 646.364L347.052 659.555L323.312 699.128L260.004 746.616L199.333 709.681L154.49 646.364L136.025 583.046L123.105 728.148L141.301 782.232L176.912 816.529L270.555 885.123L296.933 922.058L336.501 943.164L378.706 945.802L395.852 912.824L424.868 920.738L457.841 862.698L467.074 823.124L526.425 845.549L569.949 823.124L567.312 746.616L602.922 732.106L604.241 668.789L651.722 656.917L707.856 702.063L748.891 795.338L782.465 823.321L804.848 873.689L834.692 927.789L842.152 756.162L795.484 614.705Z" fill="#FFC805"/>
<path d="M141.301 782.232L140.825 884.883L181.86 987.485L228.491 1063.97L280.718 1069.57L176.912 816.529L141.301 782.232Z" fill="#00376A"/>
<path d="M176.912 816.529L280.718 1069.57L360.923 1188.96L420.61 1216.94L442.993 1164.71L351.596 1039.72L336.501 943.164L296.933 922.058L270.555 885.123L176.912 816.529Z" fill="#00237D"/>
<path d="M424.868 920.739L395.852 912.824L378.706 945.802L336.501 943.164L351.596 1039.72L442.993 1164.71L541.85 1226.27L625.785 1241.19L482.629 1045.32L424.868 920.739Z" fill="#00297D"/>
<path d="M625.785 1241.19L698.529 1263.58L705.99 1155.38L526.425 845.55L467.074 823.125L457.841 862.698L424.868 920.739L482.629 1045.32L625.785 1241.19Z" fill="#00357D"/>
<path d="M819.77 900.739L795.484 1351.26L743.295 1216.94L730.238 985.619L782.465 823.32" fill="#00377D"/>
<path d="M596.328 739.223L703.05 928.925L741.273 1016.74L800.731 839.073L762.508 808.441L715.791 706.336L651.885 656.917L597.83 669.912L596.328 739.223Z" fill="#00377D"/>
<path d="M698.53 1263.58L775.004 1461.32L963.392 1634.81L795.485 1351.26L743.295 1216.94L730.238 985.62L705.99 1155.38L698.53 1263.58Z" fill="#5989D3"/>
<path d="M602.922 732.106L567.312 746.616L569.949 823.124L526.425 845.55L705.99 1155.38L730.238 985.62L703.05 928.926L602.922 732.106Z" fill="#002F8E"/>
<path d="M390.766 1202.95L454.184 1310.22L644.438 1507.96L730.238 1550.87L842.153 1595.64L717.182 1502.36L541.85 1226.27L442.993 1164.71L420.61 1216.94L390.766 1202.95Z" fill="#5996D3"/>
<path d="M541.85 1226.27L625.785 1241.19L698.53 1263.58L775.004 1461.32L963.392 1634.81L842.153 1595.64L717.182 1502.36C642.398 1384.6 547.723 1237.42 526.425 1203.88" fill="#598ED3"/>
<path d="M842.153 1595.64L980 2539.58V2871.64L905.57 2464.96L842.153 2076.94L786.196 1573.25L842.153 1595.64Z" fill="#B80112"/>
<path d="M466.949 1323.41L493.908 1489.44L554.615 1648.01L532.12 1473.45L542.317 1401.74" fill="#CA0125" fill-opacity="0.886598"/>
<path d="M549.311 1409.09L582.593 1443.68L580.501 1751.78L541.85 1634.81L529.552 1388.55" fill="#0059FF"/>
<path d="M582.593 1442.38V1879.85L616.459 1920.24V1472.52" fill="#CA0125" fill-opacity="0.886598"/>
<path d="M616.459 1472.52L636.977 1961.81L668.686 2017.24L644.438 1495.45" fill="#B80112"/>
<path d="M644.438 1507.96L687.338 2069.48C687.338 2069.48 730.238 2149.69 730.238 2142.23C730.238 2134.77 687.338 1529.41 687.338 1529.41L644.438 1507.96Z" fill="#B80112"/>
<path d="M687.338 1529.41L819.77 2770.91L730.239 1550.87L687.338 1529.41Z" fill="#0059FF"/>
<path d="M730.238 1550.87L883.097 2845.53L963.392 3047L980 2705.61L786.195 1573.25L730.238 1550.87Z" fill="#CA0125" fill-opacity="0.886598"/>
<path d="M336.501 943.164L260.004 746.616L336.501 943.164Z" fill="white"/>
<path opacity="0.336283" d="M338.473 939.114C338.459 939.014 338.443 938.9 338.423 938.756C338.408 938.652 338.391 938.535 338.372 938.397C338.357 938.29 338.34 938.173 338.322 938.038C338.306 937.927 338.289 937.81 338.268 937.679C338.252 937.568 338.235 937.447 338.215 937.319C338.207 937.269 338.199 937.215 338.191 937.162C338.182 937.098 338.172 937.031 338.161 936.961C338.144 936.85 338.127 936.729 338.107 936.601C338.09 936.487 338.07 936.37 338.053 936.242C338.036 936.128 338.017 936.008 337.996 935.883C337.978 935.766 337.96 935.648 337.94 935.524C337.921 935.406 337.903 935.289 337.883 935.165C337.864 935.047 337.846 934.926 337.825 934.805C337.806 934.688 337.789 934.567 337.768 934.446C337.749 934.329 337.728 934.208 337.708 934.087C337.688 933.969 337.668 933.849 337.648 933.727C337.628 933.61 337.607 933.489 337.587 933.368C337.567 933.25 337.547 933.129 337.527 933.008C337.507 932.891 337.487 932.77 337.466 932.648C337.446 932.531 337.426 932.41 337.403 932.289C337.382 932.172 337.363 932.051 337.339 931.929C337.318 931.812 337.295 931.691 337.275 931.57C337.254 931.449 337.232 931.332 337.212 931.21C337.19 931.09 337.168 930.972 337.148 930.851C337.126 930.73 337.104 930.613 337.084 930.491C337.062 930.37 337.041 930.253 337.017 930.132C336.995 930.011 336.974 929.894 336.95 929.772C336.928 929.651 336.907 929.534 336.883 929.412C336.861 929.292 336.84 929.174 336.816 929.053C336.793 928.932 336.773 928.815 336.749 928.693C336.726 928.572 336.702 928.455 336.682 928.334C336.659 928.213 336.635 928.096 336.611 927.974C336.588 927.853 336.564 927.736 336.541 927.614C336.518 927.493 336.494 927.376 336.471 927.254C336.447 927.133 336.424 927.016 336.4 926.894C336.376 926.773 336.353 926.656 336.33 926.534C336.306 926.413 336.283 926.296 336.259 926.174C336.235 926.054 336.212 925.936 336.186 925.814C336.161 925.694 336.138 925.576 336.112 925.454C336.087 925.334 336.061 925.216 336.038 925.095C336.013 924.974 335.988 924.856 335.964 924.735C335.939 924.614 335.914 924.497 335.89 924.375C335.865 924.254 335.84 924.137 335.817 924.015C335.791 923.894 335.766 923.777 335.739 923.655C335.714 923.534 335.689 923.417 335.662 923.295C335.637 923.174 335.612 923.057 335.585 922.935C335.559 922.814 335.535 922.697 335.508 922.575C335.482 922.454 335.458 922.337 335.431 922.215C335.405 922.094 335.381 921.977 335.354 921.855C335.328 921.734 335.3 921.617 335.277 921.495C335.25 921.374 335.223 921.253 335.196 921.134C335.17 921.014 335.142 920.893 335.116 920.774C335.089 920.653 335.062 920.532 335.035 920.414C335.008 920.293 334.981 920.172 334.955 920.054C334.928 919.933 334.901 919.812 334.874 919.693C334.847 919.573 334.821 919.452 334.794 919.333C334.766 919.212 334.74 919.092 334.713 918.973C334.686 918.852 334.66 918.731 334.629 918.613C334.602 918.492 334.576 918.371 334.546 918.252C334.518 918.132 334.488 918.011 334.462 917.892C334.434 917.771 334.405 917.651 334.378 917.532C334.35 917.411 334.321 917.29 334.294 917.172C334.266 917.051 334.237 916.93 334.21 916.811C334.182 916.691 334.153 916.57 334.126 916.451C334.098 916.331 334.069 916.21 334.042 916.091C333.959 915.731 333.871 915.371 333.784 915.009C333.697 914.65 333.61 914.289 333.523 913.928C333.405 913.448 333.288 912.968 333.167 912.486C332.24 908.752 331.255 905.027 330.229 901.301C329.068 897.083 327.859 892.876 326.626 888.658C324.551 881.558 322.415 874.459 320.348 867.324C319.131 863.125 317.936 858.904 316.792 854.665C316.081 852.026 315.388 849.373 314.722 846.709C314.534 845.963 314.37 845.21 314.219 844.448C314.048 843.592 313.897 842.73 313.753 841.858C313.539 840.58 313.34 839.288 313.11 837.991C312.962 837.163 312.804 836.331 312.62 835.501C312.456 834.752 312.272 834.003 312.062 833.257C311.861 832.543 311.637 831.831 311.385 831.127C311.184 830.567 310.967 830.011 310.731 829.461C310.703 829.394 310.674 829.327 310.644 829.26C310.615 829.192 310.587 829.125 310.557 829.058C310.528 828.991 310.5 828.924 310.47 828.857C310.44 828.79 310.41 828.723 310.383 828.656C310.353 828.589 310.322 828.522 310.295 828.455C310.265 828.388 310.235 828.32 310.205 828.257C310.175 828.19 310.145 828.123 310.115 828.059C310.084 827.992 310.054 827.925 310.024 827.861C309.994 827.794 309.964 827.727 309.933 827.663C309.903 827.596 309.873 827.529 309.843 827.465C309.812 827.398 309.782 827.334 309.752 827.267C309.721 827.2 309.692 827.136 309.662 827.069C309.631 827.002 309.601 826.939 309.571 826.871C309.54 826.804 309.511 826.741 309.477 826.674C309.446 826.607 309.414 826.543 309.383 826.476C309.352 826.408 309.32 826.345 309.289 826.278C309.258 826.211 309.226 826.147 309.196 826.08C309.164 826.013 309.132 825.949 309.102 825.885C309.07 825.818 309.038 825.754 309.008 825.691C308.976 825.624 308.944 825.56 308.914 825.496C308.882 825.429 308.85 825.365 308.817 825.302C308.784 825.235 308.753 825.171 308.719 825.107C308.687 825.04 308.656 824.976 308.622 824.913C308.589 824.845 308.558 824.782 308.525 824.718C308.492 824.651 308.461 824.587 308.428 824.524C308.395 824.46 308.364 824.393 308.33 824.329C308.297 824.265 308.263 824.198 308.233 824.135C308.2 824.071 308.166 824.004 308.136 823.94C308.102 823.876 308.069 823.812 308.038 823.745C308.005 823.682 307.971 823.618 307.938 823.551C307.904 823.487 307.871 823.423 307.837 823.36C307.804 823.296 307.77 823.232 307.737 823.169C307.703 823.105 307.67 823.041 307.636 822.977C307.602 822.914 307.569 822.85 307.535 822.786C307.502 822.722 307.468 822.659 307.435 822.595C307.401 822.531 307.368 822.467 307.334 822.404C307.301 822.34 307.267 822.276 307.234 822.212C307.2 822.149 307.167 822.085 307.133 822.021C307.099 821.958 307.066 821.894 307.029 821.83C306.996 821.766 306.962 821.703 306.925 821.639C306.892 821.575 306.855 821.512 306.821 821.448C306.788 821.384 306.751 821.32 306.717 821.257C306.613 821.065 306.509 820.877 306.405 820.688C306.301 820.5 306.194 820.31 306.09 820.121C305.949 819.87 305.808 819.62 305.665 819.369C304.635 817.562 303.56 815.78 302.455 814.016C301.206 812.022 299.92 810.053 298.616 808.095C297.168 805.92 295.699 803.762 294.237 801.599C292.989 799.753 291.747 797.903 290.528 796.038C289.477 794.43 288.445 792.81 287.444 791.172C286.494 789.615 285.572 788.04 284.693 786.442C284.596 786.264 284.499 786.09 284.405 785.913C284.373 785.856 284.341 785.796 284.307 785.735C284.276 785.678 284.244 785.618 284.213 785.557C284.182 785.5 284.15 785.44 284.12 785.379C284.089 785.322 284.056 785.262 284.026 785.202C283.995 785.145 283.962 785.084 283.932 785.024C283.901 784.967 283.871 784.907 283.838 784.846C283.807 784.789 283.778 784.729 283.744 784.669C283.714 784.612 283.684 784.551 283.65 784.491C283.62 784.434 283.59 784.373 283.559 784.313C283.529 784.256 283.499 784.196 283.469 784.135C283.439 784.078 283.409 784.018 283.378 783.957C283.349 783.9 283.318 783.84 283.288 783.78C283.258 783.723 283.227 783.662 283.197 783.602C283.168 783.545 283.137 783.484 283.107 783.424C283.078 783.367 283.046 783.307 283.016 783.246C282.986 783.186 282.956 783.125 282.926 783.062C282.896 783.001 282.865 782.941 282.835 782.878C282.806 782.817 282.775 782.757 282.745 782.696C282.715 782.636 282.684 782.576 282.654 782.515C282.625 782.455 282.597 782.394 282.567 782.334C282.538 782.274 282.51 782.213 282.479 782.153C282.451 782.092 282.423 782.036 282.392 781.975C282.364 781.918 282.335 781.858 282.305 781.797C282.277 781.74 282.248 781.68 282.221 781.619C282.194 781.562 282.164 781.502 282.138 781.442C282.11 781.385 282.084 781.324 282.054 781.264C282.027 781.207 282 781.147 281.97 781.09C281.943 781.032 281.916 780.972 281.889 780.915C281.863 780.858 281.836 780.801 281.809 780.741C281.783 780.684 281.755 780.627 281.728 780.566C281.651 780.395 281.571 780.223 281.494 780.051C281.416 779.88 281.339 779.712 281.266 779.542C281.165 779.32 281.068 779.095 280.97 778.872C280.759 778.384 280.55 777.893 280.346 777.401C279.942 776.426 279.555 775.444 279.181 774.455C278.835 773.538 278.501 772.617 278.173 771.69C277.865 770.821 277.565 769.948 277.263 769.073C276.931 768.11 276.596 767.141 276.25 766.177C275.883 765.156 275.501 764.135 275.09 763.123C274.886 762.619 274.673 762.117 274.452 761.618C274.395 761.493 274.342 761.366 274.285 761.242C274.228 761.118 274.171 760.99 274.114 760.866C272.613 757.631 270.691 754.608 268.428 751.851C268.391 751.808 268.354 751.76 268.317 751.717C268.277 751.67 268.24 751.626 268.203 751.579C268.163 751.533 268.126 751.489 268.089 751.442C268.049 751.395 268.012 751.351 267.975 751.304C267.935 751.257 267.898 751.211 267.858 751.167C267.817 751.12 267.781 751.073 267.74 751.029C267.7 750.982 267.66 750.935 267.623 750.892C267.583 750.845 267.543 750.798 267.502 750.754C267.462 750.707 267.422 750.66 267.382 750.617C267.341 750.57 267.301 750.523 267.261 750.476C267.217 750.429 267.177 750.382 267.137 750.335C267.093 750.288 267.053 750.241 267.013 750.194C266.969 750.147 266.929 750.1 266.888 750.053C266.845 750.006 266.805 749.959 266.761 749.913C266.717 749.866 266.674 749.818 266.634 749.772C266.59 749.725 266.546 749.678 266.506 749.631C266.463 749.584 266.419 749.537 266.375 749.49C266.332 749.443 266.288 749.396 266.244 749.349C266.201 749.299 266.157 749.252 266.114 749.205C266.067 749.154 266.023 749.107 265.98 749.06C265.933 749.01 265.889 748.963 265.846 748.916C265.799 748.866 265.755 748.819 265.708 748.772C265.661 748.722 265.617 748.675 265.571 748.628C265.524 748.578 265.476 748.531 265.433 748.484C265.386 748.433 265.339 748.386 265.292 748.339C265.245 748.289 265.198 748.242 265.151 748.195C265.104 748.145 265.057 748.098 265.01 748.047C264.96 747.997 264.913 747.95 264.866 747.9C264.816 747.85 264.769 747.803 264.722 747.752C264.672 747.702 264.625 747.655 264.574 747.605C264.524 747.554 264.477 747.504 264.427 747.457C264.199 747.229 263.991 746.977 263.814 746.706C263.774 746.645 263.734 746.582 263.697 746.518C263.593 746.337 263.499 746.146 263.418 745.95C263.338 745.756 263.271 745.552 263.214 745.343C263.157 745.131 263.107 744.917 263.063 744.695C263.023 744.48 262.986 744.267 262.946 744.042C262.912 743.844 262.875 743.632 262.828 743.421C262.785 743.223 262.734 743.013 262.664 742.803C262.597 742.602 262.51 742.397 262.395 742.197C262.359 742.134 262.322 742.073 262.282 742.013C262.171 741.852 262.06 741.691 261.925 741.55C261.791 741.409 261.636 741.285 261.466 741.19C261.127 740.995 260.741 740.908 260.36 740.824C260.309 740.813 260.262 740.803 260.215 740.794C260.165 740.784 260.115 740.776 260.064 740.768C260.011 740.759 259.96 740.751 259.91 740.744C259.836 740.734 259.766 740.725 259.696 740.718C259.598 740.707 259.508 740.699 259.414 740.693C259.162 740.674 258.914 740.668 258.677 740.667C258.502 740.667 258.334 740.737 258.21 740.861C258.087 740.984 258.017 741.152 258.017 741.327C258.017 741.502 258.086 741.67 258.21 741.793C258.334 741.917 258.502 741.987 258.676 741.987C258.891 741.987 259.104 741.993 259.319 742.008C259.396 742.014 259.473 742.021 259.554 742.029C259.611 742.035 259.668 742.042 259.728 742.05C260.027 742.091 260.336 742.118 260.616 742.232C260.757 742.289 260.884 742.372 260.992 742.483C261.099 742.59 261.176 742.721 261.253 742.853C261.313 742.96 261.367 743.085 261.414 743.222C261.464 743.37 261.505 743.527 261.538 743.697C261.578 743.878 261.609 744.066 261.646 744.265C261.682 744.483 261.722 744.716 261.766 744.947C261.813 745.192 261.87 745.443 261.937 745.694C262.008 745.946 262.091 746.199 262.192 746.448C262.293 746.699 262.414 746.944 262.551 747.182C262.598 747.265 262.648 747.346 262.702 747.426C262.739 747.48 262.776 747.537 262.813 747.591C263.014 747.876 263.24 748.144 263.486 748.391C263.537 748.441 263.584 748.488 263.634 748.539C263.681 748.586 263.728 748.636 263.778 748.683C263.825 748.73 263.872 748.78 263.919 748.827C263.966 748.874 264.013 748.921 264.06 748.971C264.107 749.018 264.154 749.065 264.201 749.115C264.244 749.162 264.292 749.209 264.339 749.26C264.382 749.307 264.429 749.353 264.476 749.4C264.52 749.447 264.566 749.494 264.61 749.541C264.654 749.588 264.701 749.635 264.744 749.682C264.788 749.729 264.831 749.776 264.878 749.823C264.922 749.87 264.966 749.917 265.009 749.964C265.053 750.011 265.096 750.058 265.14 750.105C265.184 750.152 265.227 750.199 265.271 750.246C265.311 750.293 265.355 750.34 265.398 750.387C265.439 750.43 265.482 750.477 265.526 750.524C265.566 750.568 265.61 750.615 265.653 750.662C265.693 750.705 265.737 750.752 265.777 750.799C265.818 750.843 265.858 750.89 265.901 750.937C265.942 750.98 265.982 751.027 266.022 751.074C266.062 751.118 266.102 751.165 266.143 751.212C266.183 751.255 266.223 751.302 266.263 751.349C266.304 751.393 266.341 751.44 266.381 751.487C266.418 751.53 266.458 751.577 266.498 751.621C266.535 751.665 266.575 751.712 266.616 751.755C266.653 751.799 266.693 751.846 266.73 751.889C266.766 751.933 266.807 751.98 266.844 752.023C266.881 752.067 266.917 752.111 266.958 752.158C266.994 752.201 267.031 752.245 267.068 752.292C267.105 752.336 267.142 752.379 267.179 752.426C267.216 752.47 267.253 752.513 267.29 752.56C267.327 752.604 267.363 752.647 267.397 752.694C269.59 755.365 271.452 758.293 272.906 761.427C272.963 761.548 273.016 761.669 273.073 761.792C273.127 761.913 273.184 762.034 273.238 762.158C273.452 762.643 273.66 763.133 273.86 763.626C274.262 764.615 274.637 765.617 275 766.628C275.343 767.584 275.674 768.545 276.007 769.509C276.309 770.384 276.612 771.261 276.922 772.136C277.25 773.069 277.588 774 277.939 774.927C278.317 775.928 278.71 776.924 279.119 777.913C279.327 778.412 279.537 778.909 279.753 779.404C279.85 779.632 279.95 779.858 280.051 780.084C280.128 780.255 280.205 780.429 280.283 780.601C280.363 780.775 280.44 780.95 280.521 781.125C280.548 781.185 280.574 781.242 280.601 781.299C280.629 781.359 280.655 781.416 280.681 781.477C280.709 781.537 280.735 781.594 280.765 781.655C280.794 781.715 280.823 781.775 280.849 781.832C280.878 781.893 280.906 781.953 280.933 782.01C280.962 782.07 280.99 782.131 281.017 782.191C281.046 782.252 281.074 782.312 281.104 782.372C281.134 782.433 281.161 782.493 281.191 782.554C281.221 782.614 281.249 782.674 281.279 782.735C281.309 782.795 281.339 782.855 281.366 782.916C281.396 782.976 281.426 783.04 281.456 783.1C281.487 783.164 281.517 783.224 281.547 783.285C281.578 783.348 281.607 783.409 281.637 783.469C281.669 783.533 281.698 783.593 281.728 783.654C281.759 783.717 281.792 783.778 281.822 783.841C281.853 783.902 281.882 783.962 281.912 784.023C281.943 784.083 281.973 784.143 282.003 784.204C282.034 784.264 282.063 784.324 282.094 784.385C282.125 784.445 282.154 784.506 282.184 784.566C282.215 784.626 282.244 784.687 282.278 784.747C282.309 784.808 282.342 784.868 282.372 784.928C282.403 784.989 282.435 785.049 282.466 785.109C282.497 785.17 282.529 785.23 282.56 785.29C282.591 785.351 282.623 785.411 282.653 785.472C282.685 785.532 282.717 785.592 282.747 785.653C282.78 785.713 282.811 785.774 282.841 785.834C282.874 785.894 282.905 785.955 282.935 786.012C282.968 786.072 282.999 786.132 283.033 786.189C283.065 786.25 283.096 786.31 283.13 786.367C283.163 786.428 283.194 786.488 283.227 786.545C283.324 786.726 283.422 786.903 283.519 787.081C284.409 788.7 285.341 790.292 286.3 791.863C287.309 793.516 288.349 795.148 289.406 796.764C290.63 798.637 291.877 800.494 293.126 802.341C294.591 804.51 296.055 806.66 297.5 808.83C298.799 810.782 300.079 812.74 301.319 814.72C302.415 816.472 303.481 818.238 304.5 820.027C304.641 820.275 304.782 820.522 304.921 820.77C305.025 820.958 305.129 821.144 305.233 821.331C305.337 821.518 305.441 821.705 305.541 821.893C305.575 821.956 305.608 822.017 305.645 822.08C305.679 822.141 305.712 822.205 305.746 822.268C305.779 822.329 305.813 822.392 305.846 822.456C305.88 822.52 305.914 822.58 305.947 822.644C305.981 822.708 306.014 822.768 306.048 822.832C306.081 822.895 306.115 822.956 306.148 823.02C306.181 823.083 306.215 823.144 306.249 823.207C306.282 823.271 306.316 823.335 306.35 823.395C306.383 823.459 306.417 823.523 306.45 823.586C306.483 823.65 306.517 823.714 306.551 823.778C306.583 823.841 306.618 823.905 306.648 823.969C306.681 824.032 306.712 824.096 306.745 824.16C306.778 824.224 306.809 824.287 306.843 824.351C306.875 824.415 306.906 824.479 306.94 824.542C306.972 824.606 307.003 824.67 307.037 824.734C307.069 824.797 307.101 824.861 307.135 824.925C307.166 824.989 307.198 825.052 307.232 825.116C307.263 825.18 307.295 825.243 307.329 825.307C307.36 825.371 307.393 825.435 307.423 825.498C307.454 825.562 307.487 825.626 307.517 825.689C307.548 825.753 307.581 825.817 307.611 825.881C307.642 825.944 307.674 826.008 307.705 826.072C307.735 826.135 307.768 826.199 307.798 826.263C307.829 826.327 307.862 826.391 307.892 826.458C307.923 826.521 307.953 826.585 307.986 826.652C308.017 826.716 308.047 826.78 308.08 826.847C308.111 826.91 308.141 826.974 308.171 827.041C308.201 827.105 308.231 827.169 308.261 827.236C308.291 827.3 308.322 827.367 308.352 827.43C308.382 827.494 308.412 827.561 308.442 827.625C308.472 827.689 308.503 827.756 308.533 827.819C308.562 827.883 308.593 827.95 308.623 828.014C308.653 828.078 308.684 828.145 308.714 828.209C308.743 828.272 308.774 828.339 308.805 828.403C308.834 828.467 308.865 828.534 308.892 828.598C308.921 828.661 308.949 828.728 308.979 828.792C309.008 828.856 309.036 828.923 309.066 828.99C309.095 829.054 309.123 829.121 309.153 829.188C309.182 829.252 309.21 829.319 309.241 829.386C309.269 829.449 309.298 829.517 309.328 829.584C309.356 829.647 309.385 829.715 309.415 829.782C309.443 829.845 309.472 829.912 309.499 829.979C309.723 830.503 309.931 831.034 310.122 831.569C310.364 832.243 310.578 832.925 310.772 833.612C310.973 834.33 311.151 835.054 311.312 835.783C311.49 836.59 311.647 837.404 311.791 838.22C312.019 839.498 312.217 840.785 312.432 842.074C312.58 842.951 312.73 843.828 312.905 844.703C313.059 845.482 313.23 846.257 313.422 847.027C314.09 849.701 314.785 852.361 315.499 855.007C316.645 859.257 317.843 863.486 319.06 867.69C321.13 874.834 323.266 881.933 325.34 889.026C326.572 893.241 327.778 897.441 328.937 901.649C329.96 905.368 330.943 909.082 331.867 912.802C331.988 913.282 332.105 913.761 332.221 914.239C332.308 914.599 332.395 914.958 332.482 915.317C332.57 915.677 332.653 916.036 332.741 916.393C332.769 916.514 332.798 916.632 332.825 916.753C332.853 916.873 332.882 916.991 332.908 917.112C332.937 917.233 332.965 917.35 332.992 917.471C333.02 917.591 333.049 917.709 333.076 917.829C333.104 917.95 333.133 918.068 333.16 918.188C333.188 918.309 333.213 918.426 333.244 918.547C333.271 918.668 333.297 918.785 333.328 918.906C333.355 919.027 333.381 919.144 333.408 919.265C333.435 919.385 333.462 919.503 333.489 919.623C333.516 919.744 333.542 919.861 333.569 919.982C333.596 920.102 333.623 920.22 333.649 920.341C333.676 920.461 333.703 920.579 333.73 920.699C333.757 920.82 333.784 920.937 333.811 921.058C333.837 921.178 333.864 921.296 333.891 921.416C333.917 921.537 333.945 921.654 333.968 921.775C333.994 921.895 334.022 922.013 334.045 922.133C334.071 922.254 334.096 922.371 334.123 922.492C334.148 922.612 334.173 922.73 334.2 922.85C334.225 922.971 334.25 923.088 334.277 923.208C334.302 923.329 334.327 923.447 334.354 923.567C334.379 923.687 334.404 923.805 334.431 923.925C334.456 924.046 334.481 924.163 334.505 924.283C334.53 924.404 334.555 924.521 334.579 924.641C334.603 924.762 334.629 924.88 334.652 925C334.677 925.12 334.703 925.238 334.726 925.358C334.751 925.479 334.776 925.596 334.8 925.716C334.824 925.837 334.847 925.954 334.874 926.074C334.898 926.195 334.921 926.313 334.944 926.432C334.968 926.553 334.991 926.67 335.015 926.79C335.038 926.911 335.061 927.028 335.085 927.148C335.108 927.269 335.132 927.386 335.155 927.506C335.179 927.627 335.202 927.744 335.226 927.864C335.249 927.985 335.273 928.102 335.296 928.222C335.319 928.343 335.343 928.46 335.363 928.58C335.386 928.7 335.41 928.818 335.43 928.938C335.453 929.058 335.474 929.176 335.497 929.295C335.52 929.416 335.541 929.534 335.565 929.653C335.587 929.774 335.608 929.891 335.632 930.011C335.654 930.132 335.675 930.249 335.699 930.368C335.721 930.489 335.742 930.606 335.762 930.726C335.784 930.847 335.806 930.964 335.826 931.084C335.848 931.204 335.87 931.322 335.89 931.441C335.911 931.562 335.933 931.679 335.954 931.799C335.975 931.919 335.997 932.037 336.017 932.156C336.038 932.277 336.057 932.394 336.081 932.513C336.102 932.634 336.121 932.752 336.141 932.871C336.162 932.991 336.182 933.109 336.202 933.228C336.222 933.349 336.242 933.469 336.262 933.585C336.282 933.706 336.302 933.827 336.323 933.942C336.343 934.063 336.363 934.184 336.383 934.3C336.403 934.42 336.423 934.541 336.44 934.657C336.46 934.778 336.48 934.898 336.497 935.014C336.516 935.135 336.537 935.256 336.554 935.371C336.573 935.492 336.591 935.613 336.611 935.728C336.63 935.852 336.648 935.97 336.668 936.085C336.687 936.209 336.705 936.326 336.725 936.442C336.744 936.566 336.762 936.687 336.778 936.799C336.798 936.926 336.815 937.047 336.832 937.156C336.843 937.226 336.853 937.293 336.862 937.357C336.87 937.41 336.878 937.461 336.886 937.511C336.904 937.639 336.923 937.756 336.939 937.868C336.958 937.996 336.976 938.116 336.993 938.225C337.012 938.356 337.03 938.476 337.043 938.581C337.063 938.719 337.08 938.836 337.094 938.938C337.114 939.079 337.13 939.193 337.144 939.295C337.169 939.467 337.262 939.622 337.401 939.726C337.541 939.831 337.716 939.875 337.888 939.851C338.061 939.827 338.217 939.735 338.322 939.596C338.427 939.457 338.496 939.287 338.473 939.114Z" fill="white"/>
<path d="M424.567 919.337C424.453 918.882 424.315 918.28 424.186 917.523C424.089 916.943 423.995 916.287 423.915 915.51C423.834 914.756 423.774 913.983 423.71 913.06C423.653 912.231 423.579 911.051 423.496 910.064C423.473 909.789 423.448 909.503 423.418 909.213C423.378 908.8 423.328 908.341 423.264 907.859C423.234 907.631 423.197 907.381 423.157 907.11C422.966 905.894 422.721 904.611 422.409 903.255C422.114 901.971 421.763 900.642 421.351 899.254C420.93 897.831 420.456 896.38 419.925 894.871C419.363 893.274 418.758 891.667 418.104 889.988C417.034 887.242 415.885 884.44 414.766 881.544C414.3 880.337 413.828 879.084 413.372 877.808C411.9 873.685 410.349 869.531 408.714 865.273C406.792 860.265 404.825 855.294 402.772 850.126C400.593 844.64 398.299 838.885 396.097 833.197C394.475 829.006 392.849 824.711 391.274 820.36C389.885 816.523 388.521 812.603 387.218 808.62C386.437 806.231 385.671 803.8 384.931 801.334C384.116 798.616 383.354 795.859 382.623 793.051C381.819 789.96 381.061 786.842 380.313 783.668C379.067 778.372 377.873 773.009 376.588 767.613C375.869 764.594 375.115 761.54 374.305 758.487C373.597 755.821 372.842 753.137 372.021 750.457C371.642 749.221 371.247 747.977 370.834 746.731C370.727 746.403 370.616 746.074 370.502 745.743C370.418 745.498 370.335 745.251 370.251 745.003C370.167 744.758 370.08 744.511 369.996 744.264C369.909 744.019 369.825 743.773 369.734 743.526C369.705 743.446 369.677 743.362 369.647 743.281C369.618 743.201 369.59 743.117 369.56 743.037C369.53 742.956 369.5 742.872 369.473 742.792C369.443 742.711 369.412 742.627 369.382 742.547C369.352 742.466 369.322 742.383 369.292 742.302C369.262 742.222 369.231 742.138 369.201 742.057C369.171 741.977 369.141 741.893 369.111 741.812C369.08 741.732 369.05 741.648 369.02 741.567C368.99 741.487 368.96 741.403 368.929 741.323C368.899 741.242 368.869 741.158 368.839 741.078C368.808 740.997 368.778 740.913 368.748 740.833C368.717 740.752 368.688 740.672 368.654 740.588C368.623 740.508 368.591 740.427 368.56 740.343C368.529 740.263 368.497 740.182 368.467 740.098C368.435 740.018 368.403 739.937 368.373 739.854C368.341 739.773 368.309 739.693 368.279 739.609C368.247 739.528 368.215 739.448 368.185 739.367C368.153 739.287 368.121 739.206 368.088 739.126C368.055 739.045 368.024 738.965 367.99 738.884C367.958 738.804 367.927 738.723 367.893 738.643C367.861 738.562 367.829 738.482 367.796 738.401C367.763 738.321 367.732 738.24 367.699 738.16C367.666 738.079 367.632 737.999 367.601 737.918C367.568 737.838 367.534 737.757 367.504 737.677C367.471 737.596 367.437 737.516 367.403 737.435C367.37 737.355 367.336 737.274 367.303 737.194C367.185 736.915 367.072 736.641 366.959 736.365C366.338 734.853 365.742 733.327 365.146 731.814C364.57 730.351 363.995 728.898 363.39 727.455C362.895 726.273 362.382 725.104 361.837 723.952C361.338 722.896 360.812 721.857 360.251 720.841C359.721 719.883 359.161 718.947 358.562 718.041C358.017 717.214 357.44 716.414 356.831 715.644C356.232 714.888 355.601 714.164 354.939 713.476C354.815 713.345 354.687 713.218 354.561 713.092C354.233 712.763 353.885 712.458 353.527 712.174C353.128 711.859 352.714 711.567 352.294 711.296C351.826 710.994 351.349 710.716 350.871 710.452C350.264 710.117 349.647 709.801 349.043 709.494C348.453 709.195 347.881 708.904 347.312 708.599C346.849 708.35 346.4 708.098 345.963 707.83C345.552 707.578 345.155 707.314 344.778 707.033C344.6 706.902 344.427 706.768 344.255 706.634C343.666 706.175 343.083 705.696 342.516 705.231C341.993 704.803 341.485 704.387 340.963 703.982C340.526 703.642 340.09 703.318 339.646 703.012C339.223 702.72 338.797 702.449 338.364 702.203C338.146 702.079 337.93 701.965 337.714 701.855C337.177 701.587 336.637 701.351 336.104 701.143C335.476 700.898 334.847 700.685 334.235 700.498C333.497 700.273 332.759 700.077 332.055 699.9C330.805 699.588 329.592 699.314 328.433 699.016C327.714 698.831 327.042 698.643 326.392 698.437C325.758 698.236 325.169 698.026 324.615 697.802C324.121 697.604 323.671 697.398 323.258 697.191C323.203 697.166 323.14 697.162 323.082 697.182C323.025 697.202 322.978 697.244 322.951 697.299C322.924 697.353 322.919 697.416 322.937 697.474C322.956 697.532 322.996 697.58 323.05 697.608C323.474 697.82 323.936 698.03 324.44 698.234C325.007 698.463 325.608 698.678 326.252 698.882C326.912 699.09 327.593 699.281 328.317 699.467C329.485 699.769 330.7 700.041 331.942 700.353C332.642 700.527 333.371 700.722 334.1 700.944C334.703 701.128 335.319 701.336 335.934 701.577C336.456 701.781 336.983 702.011 337.505 702.272C337.713 702.376 337.922 702.487 338.133 702.608C338.553 702.846 338.967 703.111 339.381 703.396C339.816 703.694 340.244 704.014 340.676 704.35C341.193 704.751 341.697 705.164 342.22 705.592C342.786 706.056 343.373 706.539 343.969 707.002C344.143 707.136 344.319 707.274 344.499 707.407C344.89 707.698 345.298 707.969 345.719 708.227C346.166 708.502 346.624 708.758 347.091 709.009C347.666 709.318 348.243 709.61 348.831 709.909C349.435 710.217 350.047 710.529 350.646 710.86C351.116 711.118 351.585 711.393 352.041 711.687C352.45 711.952 352.852 712.234 353.237 712.539C353.583 712.814 353.917 713.106 354.231 713.421C354.355 713.545 354.479 713.673 354.602 713.799C355.253 714.476 355.874 715.189 356.465 715.934C357.066 716.692 357.634 717.482 358.173 718.298C358.764 719.193 359.318 720.118 359.842 721.066C360.398 722.073 360.919 723.103 361.415 724.152C361.956 725.296 362.466 726.457 362.96 727.635C363.562 729.073 364.136 730.521 364.711 731.984C365.306 733.496 365.905 735.026 366.527 736.541C366.641 736.82 366.756 737.094 366.871 737.372C366.904 737.452 366.938 737.533 366.972 737.613C367.005 737.694 367.039 737.774 367.069 737.855C367.102 737.935 367.136 738.016 367.166 738.096C367.199 738.177 367.23 738.257 367.263 738.338C367.296 738.418 367.327 738.499 367.361 738.579C367.393 738.66 367.425 738.74 367.458 738.821C367.49 738.901 367.522 738.982 367.555 739.062C367.587 739.143 367.619 739.223 367.653 739.304C367.684 739.384 367.716 739.465 367.747 739.545C367.778 739.626 367.81 739.706 367.84 739.787C367.872 739.867 367.904 739.948 367.934 740.028C367.965 740.109 367.998 740.189 368.028 740.27C368.059 740.35 368.092 740.431 368.122 740.511C368.153 740.592 368.183 740.672 368.216 740.753C368.247 740.833 368.276 740.914 368.31 740.994C368.341 741.075 368.37 741.155 368.401 741.236C368.431 741.316 368.461 741.397 368.491 741.481C368.521 741.561 368.552 741.641 368.582 741.725C368.612 741.806 368.642 741.886 368.672 741.97C368.702 742.051 368.732 742.131 368.763 742.215C368.792 742.296 368.823 742.379 368.853 742.46C368.883 742.54 368.914 742.624 368.944 742.705C368.973 742.785 369.004 742.869 369.031 742.95C369.06 743.03 369.091 743.114 369.118 743.194C369.148 743.275 369.175 743.359 369.205 743.439C369.234 743.52 369.262 743.604 369.292 743.684C369.38 743.929 369.467 744.175 369.551 744.419C369.638 744.667 369.722 744.911 369.806 745.156C369.89 745.404 369.973 745.649 370.057 745.894C370.168 746.226 370.278 746.553 370.386 746.879C370.797 748.122 371.191 749.361 371.569 750.595C372.388 753.269 373.142 755.946 373.848 758.607C374.657 761.655 375.41 764.705 376.129 767.722C377.413 773.114 378.607 778.477 379.854 783.776C380.601 786.952 381.36 790.074 382.166 793.17C382.898 795.982 383.662 798.745 384.479 801.469C385.22 803.939 385.987 806.374 386.769 808.766C388.074 812.754 389.439 816.679 390.83 820.52C392.407 824.875 394.034 829.174 395.657 833.367C397.859 839.057 400.155 844.814 402.334 850.299C404.387 855.467 406.352 860.436 408.273 865.441C409.907 869.696 411.457 873.847 412.928 877.966C413.385 879.247 413.859 880.504 414.326 881.713C415.447 884.616 416.596 887.417 417.664 890.159C418.317 891.834 418.92 893.436 419.48 895.027C420.008 896.53 420.48 897.973 420.899 899.387C421.308 900.767 421.656 902.087 421.949 903.361C422.258 904.706 422.503 905.978 422.691 907.184C422.731 907.449 422.768 907.697 422.798 907.921C422.862 908.397 422.912 908.851 422.952 909.26C422.981 909.548 423.006 909.83 423.03 910.104C423.11 911.087 423.184 912.258 423.241 913.093C423.305 914.02 423.368 914.798 423.449 915.561C423.533 916.347 423.626 917.012 423.724 917.602C423.855 918.373 423.992 918.988 424.112 919.453C424.128 919.512 424.166 919.562 424.219 919.593C424.272 919.624 424.335 919.633 424.394 919.618C424.453 919.603 424.504 919.565 424.536 919.513C424.568 919.461 424.58 919.396 424.567 919.337Z" fill="white"/>
<path opacity="0.615044" d="M524.498 843.555C521.161 839.26 509.863 824.759 503.065 815.944C499.116 810.823 494.028 804.191 488.705 797.116C486.6 794.32 484.19 791.097 481.605 787.599C480.555 786.179 479.427 784.688 478.157 783.042C477.909 782.72 477.655 782.393 477.399 782.063C476.352 780.714 475.265 779.331 473.974 777.696C472.279 775.55 469.857 772.503 467.842 769.918C466.631 768.365 465.31 766.652 463.977 764.876C462.923 763.471 461.814 761.963 460.7 760.391C460.365 759.917 460.009 759.411 459.656 758.896C458.577 757.325 457.514 755.683 456.448 753.951C455.373 752.205 454.315 750.401 453.247 748.514C452.046 746.392 450.87 744.237 449.658 741.983C448.023 738.942 446.374 735.818 444.645 732.651C443.564 730.67 442.431 728.639 441.249 726.612C440.204 724.818 439.103 723.001 437.941 721.191C437.469 720.456 436.982 719.715 436.478 718.968C435.815 717.986 435.138 717.01 434.441 716.014C433.437 714.58 432.836 713.735 431.832 712.301C430.937 711.02 430.032 709.709 429.152 708.377C428.452 707.318 427.759 706.235 427.09 705.127C426.501 704.153 425.927 703.154 425.382 702.131C425.171 701.734 424.961 701.331 424.757 700.922C423.491 698.39 422.202 695.829 420.893 693.262C418.807 689.169 416.664 685.046 414.456 680.929C412.977 678.171 411.461 675.4 409.903 672.629C408.568 670.255 407.197 667.873 405.788 665.494C404.577 663.45 403.334 661.402 402.055 659.361C401.196 657.993 400.319 656.622 399.42 655.254C399.202 654.922 398.981 654.588 398.759 654.253C398.594 654.005 398.43 653.758 398.262 653.509C398.098 653.265 397.933 653.019 397.764 652.772C397.711 652.692 397.653 652.611 397.6 652.528C397.546 652.447 397.489 652.367 397.435 652.283C397.378 652.202 397.325 652.122 397.268 652.041C397.211 651.961 397.157 651.88 397.1 651.8C397.043 651.719 396.989 651.639 396.932 651.558C396.875 651.478 396.822 651.397 396.765 651.317C396.708 651.236 396.654 651.156 396.597 651.079C396.54 650.998 396.486 650.921 396.429 650.84C396.372 650.76 396.319 650.683 396.262 650.602C396.205 650.522 396.151 650.445 396.094 650.364C396.037 650.284 395.983 650.207 395.926 650.129C395.869 650.052 395.816 649.972 395.759 649.895C395.702 649.817 395.648 649.737 395.591 649.66C395.534 649.583 395.48 649.505 395.423 649.425C395.366 649.348 395.313 649.271 395.256 649.194C395.199 649.116 395.145 649.039 395.088 648.962C395.031 648.885 394.977 648.808 394.92 648.731C394.863 648.654 394.809 648.576 394.752 648.503C394.695 648.426 394.642 648.348 394.585 648.274C394.528 648.197 394.474 648.124 394.417 648.046C394.36 647.969 394.306 647.896 394.249 647.818C394.192 647.741 394.139 647.667 394.082 647.594C394.025 647.517 393.971 647.443 393.914 647.369C393.857 647.295 393.803 647.218 393.746 647.144C393.689 647.07 393.636 646.997 393.579 646.919C393.522 646.846 393.468 646.772 393.411 646.698C393.354 646.624 393.3 646.55 393.243 646.477C393.186 646.403 393.133 646.329 393.076 646.255C393.019 646.182 392.965 646.108 392.908 646.037C392.851 645.963 392.797 645.893 392.74 645.819C392.683 645.745 392.63 645.675 392.573 645.601C392.516 645.527 392.462 645.457 392.405 645.387C392.348 645.313 392.294 645.242 392.237 645.172C392.18 645.101 392.127 645.028 392.07 644.957C392.013 644.887 391.959 644.816 391.902 644.746C391.845 644.676 391.791 644.605 391.734 644.535C391.677 644.464 391.624 644.394 391.567 644.323C391.51 644.253 391.456 644.182 391.399 644.115C391.342 644.045 391.288 643.974 391.231 643.907C391.174 643.837 391.121 643.77 391.064 643.699C391.007 643.629 390.953 643.562 390.896 643.495C390.839 643.424 390.785 643.357 390.728 643.29C390.671 643.22 390.618 643.153 390.564 643.086C390.507 643.019 390.453 642.951 390.399 642.884C390.342 642.817 390.289 642.75 390.235 642.683C390.178 642.616 390.124 642.549 390.071 642.482C390.014 642.415 389.96 642.348 389.907 642.284C389.85 642.217 389.796 642.15 389.742 642.086C389.685 642.019 389.631 641.955 389.578 641.888C389.521 641.821 389.467 641.757 389.413 641.694C389.356 641.626 389.303 641.563 389.249 641.499C389.192 641.432 389.138 641.368 389.085 641.305C389.028 641.241 388.974 641.177 388.92 641.113C388.863 641.05 388.81 640.986 388.756 640.922C388.699 640.858 388.646 640.795 388.592 640.731C388.535 640.667 388.481 640.603 388.427 640.543C388.37 640.479 388.317 640.419 388.263 640.355C388.206 640.291 388.152 640.231 388.099 640.171C388.042 640.107 387.988 640.047 387.935 639.986C387.878 639.923 387.824 639.862 387.77 639.802C387.713 639.738 387.659 639.681 387.606 639.621C387.549 639.56 387.495 639.5 387.442 639.44C387.384 639.379 387.331 639.319 387.277 639.262C387.22 639.201 387.166 639.141 387.113 639.084C387.056 639.024 387.002 638.967 386.948 638.906C386.891 638.846 386.838 638.789 386.784 638.732C386.727 638.671 386.674 638.614 386.62 638.557C386.563 638.497 386.509 638.44 386.455 638.386C386.398 638.326 386.345 638.269 386.291 638.215C386.234 638.155 386.181 638.101 386.127 638.044C386.07 637.984 386.016 637.93 385.962 637.877C385.905 637.819 385.852 637.763 385.798 637.709C385.741 637.652 385.687 637.595 385.634 637.544C385.577 637.484 385.52 637.43 385.47 637.38C385.382 637.295 385.264 637.248 385.142 637.249C385.02 637.25 384.903 637.299 384.816 637.385C384.73 637.471 384.681 637.588 384.679 637.71C384.678 637.832 384.724 637.95 384.809 638.038C384.859 638.089 384.913 638.142 384.97 638.203C385.02 638.253 385.074 638.31 385.131 638.367C385.181 638.417 385.235 638.474 385.292 638.531C385.342 638.585 385.396 638.639 385.453 638.696C385.503 638.749 385.56 638.806 385.614 638.863C385.664 638.917 385.721 638.974 385.775 639.031C385.828 639.085 385.882 639.142 385.936 639.202C385.989 639.256 386.043 639.316 386.097 639.373C386.15 639.43 386.204 639.487 386.258 639.548C386.311 639.605 386.365 639.662 386.419 639.722C386.472 639.779 386.526 639.839 386.579 639.896C386.633 639.953 386.687 640.014 386.74 640.074C386.794 640.131 386.848 640.192 386.905 640.252C386.959 640.309 387.012 640.369 387.069 640.433C387.123 640.493 387.176 640.554 387.233 640.614C387.287 640.675 387.341 640.735 387.398 640.795C387.451 640.856 387.505 640.916 387.562 640.98C387.616 641.04 387.67 641.101 387.727 641.164C387.78 641.225 387.834 641.288 387.891 641.352C387.944 641.413 387.998 641.476 388.055 641.54C388.109 641.6 388.163 641.664 388.22 641.728C388.273 641.792 388.327 641.855 388.384 641.919C388.438 641.983 388.491 642.046 388.548 642.11C388.602 642.174 388.655 642.238 388.712 642.301C388.766 642.365 388.82 642.429 388.877 642.496C388.931 642.56 388.984 642.627 389.041 642.691C389.095 642.754 389.148 642.821 389.205 642.885C389.259 642.949 389.313 643.016 389.37 643.083C389.423 643.147 389.477 643.214 389.534 643.281C389.588 643.348 389.645 643.415 389.699 643.482C389.752 643.549 389.809 643.616 389.863 643.683C389.916 643.75 389.973 643.818 390.027 643.885C390.081 643.952 390.138 644.019 390.192 644.089C390.245 644.156 390.302 644.223 390.356 644.294C390.409 644.361 390.466 644.431 390.52 644.498C390.574 644.565 390.631 644.636 390.684 644.706C390.738 644.773 390.795 644.844 390.849 644.914C390.903 644.985 390.959 645.052 391.013 645.122C391.067 645.193 391.124 645.263 391.177 645.334C391.231 645.404 391.288 645.474 391.342 645.545C391.395 645.615 391.453 645.686 391.506 645.756C391.56 645.827 391.617 645.897 391.67 645.971C391.724 646.041 391.781 646.112 391.835 646.185C391.888 646.256 391.945 646.33 391.999 646.4C392.053 646.471 392.11 646.544 392.164 646.618C392.217 646.689 392.274 646.762 392.328 646.836C392.381 646.91 392.438 646.98 392.492 647.054C392.546 647.128 392.603 647.202 392.656 647.272C392.71 647.346 392.767 647.42 392.821 647.494C392.875 647.567 392.931 647.641 392.985 647.715C393.039 647.789 393.096 647.863 393.149 647.936C393.203 648.01 393.26 648.084 393.314 648.161C393.367 648.235 393.425 648.312 393.478 648.386C393.532 648.46 393.589 648.537 393.642 648.611C393.696 648.684 393.753 648.762 393.807 648.839C393.86 648.912 393.917 648.99 393.971 649.067C394.025 649.144 394.082 649.218 394.135 649.295C394.189 649.372 394.246 649.449 394.3 649.523C394.353 649.6 394.41 649.677 394.464 649.754C394.518 649.831 394.575 649.909 394.628 649.986C394.682 650.063 394.739 650.14 394.793 650.217C394.846 650.294 394.903 650.372 394.957 650.449C395.011 650.526 395.068 650.603 395.121 650.683C395.175 650.761 395.232 650.841 395.286 650.918C395.34 650.996 395.396 651.076 395.45 651.153C395.504 651.23 395.561 651.311 395.614 651.388C395.668 651.468 395.725 651.545 395.779 651.626C395.832 651.706 395.89 651.784 395.943 651.864C395.997 651.945 396.054 652.022 396.107 652.102C396.161 652.183 396.218 652.263 396.272 652.34C396.325 652.421 396.382 652.502 396.436 652.582C396.49 652.663 396.547 652.743 396.601 652.823C396.654 652.904 396.711 652.984 396.765 653.065C396.818 653.145 396.875 653.226 396.929 653.306C397.097 653.551 397.261 653.796 397.424 654.039C397.592 654.288 397.756 654.534 397.919 654.779C398.14 655.111 398.36 655.445 398.577 655.776C399.472 657.137 400.346 658.503 401.201 659.866C402.475 661.9 403.715 663.941 404.923 665.979C406.327 668.35 407.694 670.727 409.026 673.096C410.581 675.86 412.094 678.626 413.571 681.379C415.775 685.489 417.914 689.606 419.998 693.695C421.306 696.259 422.594 698.818 423.859 701.349C424.067 701.766 424.28 702.176 424.495 702.579C425.05 703.619 425.632 704.633 426.228 705.619C426.905 706.74 427.605 707.834 428.31 708.901C429.197 710.242 430.106 711.561 431.004 712.845C431.769 713.94 432.848 715.464 433.613 716.559C434.309 717.552 434.982 718.524 435.64 719.499C436.14 720.24 436.623 720.975 437.091 721.704C438.245 723.5 439.338 725.307 440.379 727.091C441.555 729.108 442.683 731.131 443.762 733.107C445.487 736.267 447.135 739.389 448.772 742.434C449.986 744.691 451.164 746.853 452.37 748.983C453.443 750.877 454.507 752.691 455.589 754.449C456.662 756.193 457.733 757.848 458.822 759.433C459.178 759.953 459.537 760.464 459.874 760.939C460.994 762.52 462.108 764.035 463.166 765.445C464.503 767.228 465.829 768.946 467.042 770.501C469.059 773.088 471.485 776.141 473.177 778.283C474.468 779.917 475.552 781.298 476.597 782.644C476.852 782.973 477.105 783.299 477.353 783.621C478.62 785.264 479.745 786.749 480.79 788.163C483.377 791.664 485.789 794.889 487.894 797.687C493.221 804.766 498.312 811.401 502.262 816.523C509.06 825.34 520.362 839.844 523.697 844.137C523.773 844.234 523.884 844.297 524.007 844.311C524.129 844.326 524.252 844.292 524.349 844.217C524.447 844.141 524.51 844.03 524.526 843.908C524.541 843.786 524.508 843.662 524.433 843.565L524.498 843.555Z" fill="white"/>
<path opacity="0.778761" d="M565.611 742.967C565.234 741.741 564.785 740.274 564.277 738.595C564.21 738.37 563.485 735.968 563.417 735.744C563.232 735.131 562.99 734.326 562.759 733.573C562.608 733.077 562.427 732.495 562.24 731.913C562.096 731.471 561.932 730.976 561.749 730.473C561.618 730.116 561.474 729.738 561.309 729.345C561.172 729.013 561.021 728.676 560.858 728.323C560.624 727.815 560.423 727.405 560.194 726.941C559.935 726.417 559.685 725.918 559.392 725.336C559.064 724.682 558.7 723.956 558.343 723.238C557.849 722.247 557.339 721.214 556.815 720.141C555.865 718.198 554.904 716.202 553.913 714.116C553.319 712.868 552.72 711.596 552.098 710.272C549.826 705.435 547.063 699.475 544.791 694.639C542.889 690.584 540.894 686.375 538.84 682.161C537.064 678.518 535.203 674.789 533.258 671.042C531.541 667.733 529.737 664.371 527.842 660.996C527.788 660.899 527.734 660.802 527.677 660.705C527.624 660.607 527.567 660.51 527.513 660.413C527.459 660.316 527.402 660.218 527.349 660.121C527.295 660.024 527.238 659.927 527.184 659.829C527.131 659.732 527.074 659.635 527.02 659.538C526.966 659.44 526.909 659.343 526.852 659.246C526.799 659.148 526.742 659.051 526.685 658.954C526.631 658.857 526.574 658.759 526.517 658.662C526.46 658.565 526.406 658.467 526.349 658.37C526.292 658.273 526.239 658.176 526.182 658.078C526.125 657.981 526.071 657.884 526.014 657.787C525.957 657.689 525.903 657.592 525.846 657.495C525.789 657.397 525.736 657.304 525.679 657.203C525.622 657.106 525.568 657.012 525.511 656.915C525.454 656.817 525.397 656.723 525.343 656.626C525.286 656.529 525.229 656.435 525.172 656.338C525.115 656.24 525.058 656.146 525.001 656.049C524.944 655.952 524.887 655.858 524.83 655.761C524.773 655.663 524.716 655.57 524.659 655.472C524.602 655.375 524.545 655.281 524.488 655.184C524.431 655.087 524.374 654.992 524.317 654.895C524.26 654.798 524.203 654.704 524.146 654.607C524.089 654.51 524.032 654.416 523.975 654.318C523.918 654.221 523.861 654.127 523.804 654.03C523.747 653.933 523.69 653.839 523.629 653.742C523.572 653.644 523.515 653.55 523.455 653.453C523.398 653.356 523.341 653.262 523.281 653.165C523.224 653.071 523.163 652.973 523.106 652.876C523.049 652.782 522.989 652.685 522.932 652.588C522.875 652.494 522.814 652.397 522.757 652.303C522.7 652.209 522.64 652.111 522.583 652.017C522.526 651.923 522.466 651.826 522.409 651.732C522.348 651.638 522.291 651.541 522.231 651.447C522.171 651.353 522.114 651.256 522.053 651.162C521.993 651.068 521.936 650.971 521.876 650.877C521.815 650.783 521.758 650.686 521.698 650.592C521.637 650.498 521.58 650.401 521.52 650.307C521.46 650.213 521.403 650.116 521.342 650.022C521.282 649.928 521.225 649.831 521.164 649.737C521.104 649.643 521.044 649.549 520.987 649.451C520.927 649.357 520.866 649.264 520.809 649.166C520.749 649.072 520.688 648.978 520.628 648.881C520.568 648.787 520.507 648.693 520.447 648.596C520.386 648.502 520.326 648.408 520.266 648.314C520.205 648.22 520.145 648.127 520.085 648.033C520.024 647.939 519.964 647.845 519.904 647.751C519.843 647.657 519.783 647.563 519.722 647.469C519.662 647.375 519.602 647.281 519.541 647.187C519.481 647.093 519.42 647 519.357 646.906C519.296 646.812 519.236 646.718 519.173 646.624C519.112 646.53 519.048 646.436 518.988 646.342C518.928 646.248 518.864 646.154 518.804 646.06C518.743 645.966 518.679 645.873 518.619 645.779C518.559 645.685 518.495 645.591 518.435 645.497C518.374 645.403 518.311 645.309 518.25 645.215C518.186 645.121 518.126 645.027 518.066 644.933C518.002 644.839 517.942 644.746 517.878 644.652C517.814 644.558 517.754 644.464 517.69 644.373C517.626 644.279 517.566 644.185 517.502 644.095C517.439 644.001 517.378 643.907 517.314 643.816C517.251 643.722 517.19 643.629 517.127 643.538C517.063 643.444 516.999 643.354 516.939 643.26C516.875 643.166 516.811 643.075 516.751 642.981C516.687 642.887 516.624 642.797 516.56 642.703C516.496 642.609 516.432 642.518 516.369 642.425C516.305 642.331 516.241 642.24 516.178 642.146C516.114 642.052 516.05 641.962 515.986 641.868C515.923 641.774 515.859 641.683 515.795 641.589C515.732 641.495 515.668 641.405 515.604 641.311C515.54 641.217 515.477 641.126 515.413 641.032C515.349 640.938 515.285 640.848 515.218 640.758C515.155 640.664 515.088 640.573 515.024 640.482C514.96 640.389 514.893 640.298 514.829 640.207C514.766 640.113 514.699 640.023 514.635 639.932C514.571 639.842 514.504 639.748 514.44 639.657C514.373 639.567 514.31 639.473 514.246 639.382C514.179 639.292 514.115 639.198 514.051 639.107C513.984 639.017 513.921 638.923 513.854 638.832C513.787 638.742 513.723 638.648 513.656 638.557C513.588 638.466 513.525 638.373 513.458 638.282C513.391 638.191 513.327 638.101 513.26 638.007C513.193 637.917 513.126 637.826 513.062 637.732C512.995 637.641 512.928 637.551 512.864 637.46C512.797 637.37 512.73 637.279 512.663 637.189C512.596 637.098 512.529 637.008 512.462 636.917C512.395 636.826 512.328 636.736 512.261 636.645C512.193 636.555 512.126 636.464 512.059 636.373C511.992 636.283 511.925 636.192 511.858 636.102C511.791 636.011 511.724 635.921 511.657 635.83C511.553 635.693 511.449 635.548 511.338 635.407C511.184 635.206 511.03 635.009 510.871 634.814C510.811 634.74 510.754 634.67 510.693 634.596C510.633 634.526 510.573 634.452 510.512 634.381C510.452 634.311 510.391 634.241 510.328 634.17C510.247 634.076 510.163 633.982 510.08 633.892C509.976 633.778 509.872 633.66 509.764 633.548C509.218 632.96 508.646 632.397 508.056 631.855C507.423 631.275 506.77 630.719 506.103 630.182C505.365 629.588 504.611 629.016 503.849 628.458C502.819 627.702 501.772 626.967 500.735 626.233C499.848 625.604 498.966 624.975 498.099 624.327C497.381 623.79 496.675 623.241 495.988 622.671C495.372 622.16 494.773 621.632 494.195 621.082C493.984 620.881 493.775 620.676 493.57 620.468C493.086 619.98 492.617 619.477 492.158 618.963C491.646 618.389 491.148 617.801 490.66 617.202C490.112 616.53 489.577 615.845 489.053 615.151C488.429 614.324 487.821 613.485 487.222 612.638C486.433 611.52 485.662 610.388 484.899 609.249C484.738 609.011 484.58 608.772 484.42 608.533C483.183 606.677 481.686 605.014 480.066 603.481C479.976 603.397 479.885 603.31 479.795 603.226C479.674 603.116 479.553 603.002 479.431 602.891C478.698 602.224 477.946 601.582 477.186 600.957C476.233 600.173 475.263 599.413 474.298 598.661C473.398 597.96 472.504 597.27 471.619 596.565C470.901 595.994 470.194 595.418 469.502 594.826C468.88 594.294 468.273 593.751 467.685 593.19C468.434 592.458 468.861 591.457 468.872 590.41C468.883 589.363 468.478 588.354 467.745 587.605C467.013 586.856 466.013 586.429 464.966 586.418C463.919 586.407 462.91 586.812 462.161 587.545C462.178 587.578 462.195 587.612 462.212 587.646C462.806 588.826 463.46 589.983 464.29 591.011C465.12 592.039 466.082 592.951 467.037 593.863C467.639 594.439 468.26 594.993 468.892 595.534C469.595 596.135 470.311 596.718 471.034 597.293C471.925 598.002 472.824 598.697 473.721 599.395C474.686 600.147 475.648 600.901 476.59 601.676C477.341 602.294 478.081 602.926 478.8 603.58C478.92 603.687 479.038 603.798 479.156 603.908C479.243 603.989 479.334 604.073 479.421 604.157C480.205 604.899 480.99 605.643 481.703 606.454C482.416 607.265 483.04 608.149 483.639 609.048C483.8 609.286 483.958 609.527 484.119 609.766C484.885 610.909 485.661 612.047 486.456 613.173C487.059 614.027 487.673 614.874 488.304 615.71C488.834 616.412 489.376 617.106 489.933 617.789C490.428 618.397 490.935 618.995 491.458 619.581C491.926 620.106 492.406 620.621 492.902 621.122C493.113 621.336 493.329 621.547 493.547 621.755C494.142 622.322 494.758 622.864 495.388 623.386C496.09 623.969 496.809 624.528 497.536 625.072C498.413 625.727 499.303 626.363 500.192 626.992C501.234 627.73 502.271 628.458 503.293 629.208C504.047 629.76 504.79 630.323 505.514 630.906C506.168 631.433 506.806 631.976 507.421 632.54C507.995 633.067 508.549 633.613 509.077 634.181C509.177 634.292 509.281 634.402 509.378 634.513C509.459 634.603 509.539 634.691 509.616 634.781C509.677 634.848 509.734 634.919 509.794 634.986C509.851 635.053 509.911 635.123 509.969 635.194C510.026 635.264 510.083 635.335 510.14 635.402C510.294 635.59 510.441 635.779 510.589 635.972C510.693 636.106 510.794 636.247 510.901 636.388C510.968 636.478 511.035 636.566 511.102 636.656C511.169 636.747 511.236 636.837 511.303 636.928C511.37 637.018 511.437 637.109 511.504 637.199C511.572 637.29 511.639 637.381 511.706 637.471C511.773 637.562 511.84 637.652 511.904 637.743C511.971 637.833 512.038 637.924 512.101 638.015C512.168 638.105 512.232 638.196 512.299 638.286C512.367 638.377 512.43 638.467 512.497 638.558C512.564 638.649 512.628 638.739 512.695 638.83C512.759 638.92 512.826 639.011 512.893 639.101C512.957 639.192 513.024 639.283 513.091 639.373C513.155 639.464 513.222 639.554 513.285 639.648C513.349 639.739 513.416 639.829 513.48 639.923C513.543 640.014 513.611 640.104 513.674 640.198C513.738 640.289 513.805 640.379 513.869 640.473C513.933 640.564 513.996 640.658 514.063 640.748C514.127 640.839 514.191 640.933 514.258 641.023C514.322 641.114 514.385 641.208 514.449 641.298C514.513 641.389 514.576 641.483 514.64 641.573C514.704 641.664 514.768 641.758 514.832 641.848C514.895 641.939 514.959 642.033 515.023 642.123C515.086 642.214 515.15 642.308 515.214 642.398C515.277 642.489 515.341 642.583 515.405 642.674C515.469 642.764 515.532 642.858 515.596 642.949C515.66 643.039 515.723 643.133 515.784 643.227C515.848 643.318 515.911 643.412 515.972 643.505C516.035 643.599 516.096 643.69 516.159 643.784C516.223 643.878 516.284 643.968 516.347 644.062C516.411 644.156 516.471 644.247 516.535 644.34C516.599 644.434 516.659 644.525 516.723 644.619C516.787 644.713 516.847 644.803 516.911 644.897C516.971 644.991 517.035 645.082 517.098 645.176C517.159 645.27 517.223 645.36 517.283 645.454C517.343 645.548 517.407 645.642 517.467 645.733C517.528 645.826 517.592 645.92 517.652 646.011C517.712 646.105 517.776 646.199 517.836 646.289C517.897 646.383 517.961 646.477 518.021 646.568C518.081 646.662 518.141 646.756 518.205 646.85C518.265 646.944 518.326 647.037 518.39 647.131C518.45 647.225 518.51 647.319 518.571 647.413C518.631 647.507 518.692 647.601 518.752 647.695C518.812 647.789 518.873 647.883 518.933 647.977C518.993 648.071 519.054 648.164 519.114 648.258C519.174 648.352 519.235 648.446 519.295 648.54C519.355 648.634 519.416 648.728 519.476 648.822C519.537 648.916 519.597 649.01 519.657 649.104C519.718 649.198 519.778 649.291 519.839 649.385C519.899 649.479 519.959 649.573 520.016 649.667C520.076 649.761 520.137 649.855 520.194 649.949C520.254 650.043 520.311 650.137 520.372 650.231C520.432 650.325 520.489 650.418 520.549 650.516C520.61 650.61 520.667 650.703 520.727 650.801C520.788 650.895 520.845 650.989 520.905 651.086C520.965 651.18 521.022 651.277 521.083 651.371C521.143 651.465 521.2 651.562 521.26 651.656C521.317 651.75 521.378 651.847 521.435 651.941C521.492 652.035 521.552 652.132 521.609 652.226C521.666 652.32 521.727 652.417 521.784 652.511C521.841 652.605 521.901 652.703 521.958 652.797C522.015 652.89 522.075 652.988 522.132 653.082C522.189 653.176 522.25 653.273 522.307 653.367C522.364 653.461 522.424 653.558 522.481 653.652C522.538 653.746 522.595 653.843 522.656 653.937C522.713 654.031 522.77 654.128 522.83 654.222C522.887 654.319 522.944 654.413 523.001 654.507C523.058 654.604 523.115 654.698 523.172 654.795C523.229 654.893 523.286 654.987 523.343 655.084C523.4 655.181 523.457 655.275 523.514 655.372C523.571 655.47 523.628 655.564 523.685 655.661C523.742 655.758 523.799 655.852 523.856 655.949C523.913 656.047 523.97 656.141 524.027 656.238C524.084 656.335 524.141 656.429 524.198 656.526C524.255 656.624 524.312 656.717 524.369 656.815C524.426 656.912 524.483 657.009 524.537 657.103C524.594 657.2 524.651 657.298 524.705 657.392C524.762 657.489 524.819 657.586 524.872 657.68C524.929 657.777 524.983 657.875 525.04 657.969C525.097 658.066 525.151 658.163 525.208 658.257C525.265 658.354 525.319 658.451 525.376 658.545C525.433 658.643 525.486 658.74 525.543 658.834C525.6 658.931 525.654 659.029 525.711 659.122C525.768 659.22 525.822 659.317 525.879 659.414C525.936 659.511 525.989 659.609 526.043 659.706C526.1 659.803 526.153 659.901 526.207 659.998C526.264 660.095 526.318 660.192 526.371 660.29C526.428 660.387 526.482 660.484 526.536 660.581C526.593 660.679 526.646 660.776 526.7 660.873C526.757 660.971 526.811 661.068 526.864 661.165C526.921 661.262 526.975 661.36 527.029 661.457C528.918 664.82 530.717 668.174 532.43 671.475C534.371 675.214 536.228 678.936 538.002 682.573C540.054 686.781 542.045 690.985 543.947 695.039C546.581 700.65 548.62 705.06 551.254 710.672C551.876 711.997 552.476 713.27 553.071 714.52C554.063 716.608 555.025 718.607 555.977 720.554C556.503 721.629 557.014 722.664 557.508 723.657C557.867 724.377 558.231 725.104 558.559 725.758C558.851 726.341 559.1 726.836 559.357 727.358C559.585 727.819 559.781 728.222 559.966 728.62C560.171 729.063 560.316 729.39 560.449 729.708C560.607 730.085 560.747 730.45 560.873 730.795C561.05 731.283 561.212 731.767 561.353 732.204C561.537 732.778 561.716 733.355 561.868 733.849C562.096 734.599 562.339 735.403 562.524 736.016C562.333 735.38 563.576 739.505 563.384 738.869C563.893 740.549 564.342 742.017 564.72 743.245C564.756 743.363 564.838 743.462 564.948 743.52C565.057 743.578 565.185 743.59 565.303 743.553C565.421 743.517 565.52 743.435 565.578 743.326C565.636 743.216 565.648 743.085 565.611 742.967Z" fill="white"/>
<path opacity="0.778761" d="M596.394 665.574C596.361 665.433 596.324 665.286 596.284 665.126C596.247 664.982 596.21 664.834 596.17 664.677C596.133 664.532 596.096 664.385 596.056 664.227C596.019 664.083 595.978 663.932 595.942 663.779C595.905 663.634 595.864 663.484 595.824 663.33C595.784 663.182 595.747 663.035 595.707 662.881C595.667 662.734 595.626 662.586 595.586 662.433C595.546 662.286 595.506 662.138 595.465 661.986C595.425 661.838 595.385 661.691 595.341 661.538C595.301 661.39 595.257 661.243 595.217 661.09C595.177 660.943 595.133 660.795 595.09 660.643C595.046 660.496 595.006 660.348 594.962 660.196C594.919 660.049 594.875 659.901 594.832 659.749C594.788 659.602 594.744 659.454 594.701 659.303C594.657 659.155 594.613 659.008 594.57 658.857C594.526 658.709 594.483 658.561 594.436 658.41C594.392 658.263 594.345 658.115 594.302 657.964C594.258 657.817 594.211 657.669 594.164 657.519C594.117 657.372 594.074 657.224 594.027 657.074C593.98 656.926 593.933 656.779 593.886 656.629C593.839 656.481 593.792 656.334 593.745 656.184C593.698 656.036 593.651 655.889 593.604 655.739C593.557 655.592 593.51 655.444 593.46 655.295C593.413 655.147 593.363 655 593.316 654.851C593.265 654.703 593.219 654.556 593.168 654.407C593.105 654.213 593.061 654.088 593.021 653.964C592.97 653.819 592.923 653.672 592.87 653.52C592.819 653.376 592.769 653.229 592.719 653.077C592.668 652.933 592.618 652.785 592.568 652.635C592.517 652.49 592.467 652.343 592.413 652.192C592.363 652.044 592.309 651.9 592.259 651.75C592.209 651.602 592.155 651.458 592.102 651.308C592.051 651.16 591.998 651.016 591.944 650.866C591.89 650.718 591.84 650.574 591.786 650.424C591.733 650.277 591.679 650.133 591.625 649.983C591.572 649.836 591.518 649.691 591.464 649.542C591.411 649.394 591.357 649.25 591.303 649.101C591.25 648.954 591.196 648.809 591.139 648.661C591.086 648.513 591.028 648.369 590.975 648.22C590.921 648.073 590.864 647.929 590.807 647.78C590.75 647.633 590.697 647.489 590.64 647.341C590.583 647.193 590.529 647.049 590.472 646.901C590.415 646.754 590.358 646.609 590.301 646.462C590.244 646.315 590.187 646.17 590.13 646.023C590.073 645.879 590.016 645.731 589.959 645.584C589.902 645.44 589.845 645.293 589.784 645.146C589.727 645.002 589.667 644.854 589.61 644.708C589.553 644.564 589.492 644.416 589.435 644.27C589.375 644.126 589.318 643.978 589.258 643.832C589.197 643.688 589.14 643.54 589.08 643.395C589.02 643.25 588.959 643.103 588.899 642.958C588.838 642.813 588.778 642.666 588.718 642.521C588.657 642.377 588.597 642.229 588.537 642.085C588.476 641.94 588.416 641.793 588.352 641.648C588.292 641.504 588.228 641.356 588.168 641.212C588.107 641.068 588.044 640.92 587.983 640.776C587.92 640.632 587.859 640.488 587.796 640.341C587.732 640.197 587.671 640.053 587.608 639.906C587.544 639.761 587.484 639.617 587.42 639.471C587.356 639.326 587.293 639.182 587.229 639.036C587.165 638.892 587.101 638.747 587.038 638.602C586.974 638.457 586.91 638.313 586.846 638.168C586.783 638.023 586.719 637.879 586.652 637.734C586.588 637.59 586.521 637.446 586.457 637.3C586.394 637.156 586.327 637.012 586.263 636.867C586.196 636.723 586.132 636.578 586.068 636.434C586.001 636.29 585.937 636.145 585.87 636.001C585.803 635.857 585.74 635.713 585.673 635.569C585.606 635.425 585.539 635.28 585.475 635.137C585.408 634.992 585.341 634.848 585.273 634.705C585.206 634.56 585.139 634.416 585.072 634.273C585.005 634.129 584.938 633.985 584.871 633.842C584.804 633.698 584.737 633.553 584.667 633.411C584.599 633.266 584.529 633.122 584.462 632.98C584.395 632.836 584.325 632.692 584.257 632.55C584.187 632.405 584.12 632.264 584.053 632.119C583.982 631.975 583.915 631.834 583.845 631.689C583.775 631.545 583.707 631.404 583.637 631.26C583.567 631.115 583.496 630.974 583.429 630.83C583.359 630.686 583.288 630.545 583.218 630.401C583.147 630.257 583.077 630.116 583.007 629.973C582.936 629.828 582.866 629.688 582.795 629.544C582.725 629.4 582.654 629.259 582.584 629.116C582.513 628.972 582.443 628.831 582.369 628.688C582.299 628.544 582.225 628.403 582.154 628.26C582.084 628.116 582.01 627.975 581.94 627.833C581.866 627.692 581.796 627.548 581.725 627.406C581.652 627.265 581.581 627.121 581.507 626.979C581.434 626.839 581.363 626.694 581.289 626.553C581.216 626.412 581.145 626.268 581.071 626.127C580.998 625.986 580.924 625.842 580.853 625.701C580.78 625.561 580.706 625.416 580.632 625.276C580.558 625.135 580.485 624.991 580.411 624.851C580.337 624.71 580.263 624.569 580.189 624.425C580.116 624.285 580.042 624.144 579.968 624.001C579.894 623.86 579.82 623.719 579.743 623.576C579.669 623.436 579.592 623.295 579.519 623.153C579.445 623.012 579.368 622.871 579.294 622.729C579.22 622.588 579.143 622.447 579.069 622.306C578.992 622.165 578.918 622.024 578.841 621.883C578.764 621.742 578.69 621.601 578.613 621.46C578.536 621.319 578.462 621.178 578.385 621.037C578.308 620.896 578.231 620.755 578.157 620.615C578.08 620.474 578.003 620.333 577.929 620.193C577.852 620.052 577.775 619.911 577.698 619.771C577.62 619.63 577.543 619.489 577.466 619.35C577.389 619.209 577.312 619.068 577.235 618.929C577.158 618.788 577.08 618.647 577.003 618.508C576.926 618.367 576.849 618.227 576.768 618.088C576.691 617.947 576.614 617.806 576.534 617.668C576.457 617.527 576.376 617.39 576.299 617.248C576.222 617.107 576.141 616.97 576.064 616.828C575.987 616.688 575.907 616.55 575.829 616.409C575.749 616.268 575.672 616.131 575.591 615.99C575.511 615.85 575.434 615.712 575.353 615.572C575.273 615.431 575.196 615.293 575.115 615.154C575.035 615.013 574.958 614.875 574.877 614.736C574.797 614.595 574.716 614.457 574.639 614.318C574.558 614.177 574.478 614.04 574.401 613.901C574.32 613.76 574.24 613.622 574.159 613.484C574.079 613.346 573.998 613.205 573.918 613.067C573.837 612.93 573.757 612.789 573.676 612.651C573.596 612.513 573.516 612.373 573.435 612.235C573.355 612.097 573.274 611.957 573.194 611.819C573.113 611.682 573.032 611.541 572.952 611.404C572.871 611.267 572.791 611.126 572.707 610.989C572.627 610.852 572.543 610.714 572.462 610.574C572.382 610.437 572.298 610.299 572.218 610.16C572.137 610.023 572.053 609.885 571.973 609.746C571.892 609.608 571.808 609.471 571.728 609.332C571.644 609.195 571.564 609.057 571.483 608.919C571.399 608.781 571.319 608.643 571.235 608.505C571.151 608.368 571.071 608.23 570.987 608.092C570.903 607.955 570.823 607.817 570.739 607.68C570.655 607.542 570.574 607.405 570.491 607.267C570.407 607.13 570.326 606.993 570.242 606.856C570.158 606.718 570.075 606.581 569.994 606.444C569.91 606.307 569.826 606.169 569.746 606.033C569.662 605.895 569.578 605.758 569.494 605.622C569.411 605.484 569.327 605.347 569.243 605.211C569.159 605.074 569.075 604.936 568.991 604.801C568.908 604.664 568.824 604.53 568.74 604.391C568.656 604.254 568.572 604.12 568.488 603.982C568.405 603.844 568.321 603.71 568.237 603.572C568.153 603.435 568.069 603.301 567.985 603.164C567.901 603.026 567.818 602.892 567.734 602.755C567.65 602.618 567.566 602.483 567.479 602.347C567.395 602.209 567.311 602.075 567.224 601.939C567.14 601.801 567.053 601.667 566.969 601.532C566.885 601.394 566.798 601.26 566.714 601.124C566.63 600.987 566.543 600.853 566.459 600.718C566.376 600.583 566.288 600.446 566.205 600.311C566.121 600.177 566.034 600.039 565.95 599.905C565.866 599.771 565.778 599.633 565.695 599.499C565.611 599.365 565.524 599.227 565.44 599.093C565.353 598.959 565.269 598.822 565.185 598.688C565.098 598.554 565.014 598.42 564.927 598.283C564.84 598.149 564.756 598.015 564.669 597.879C564.581 597.745 564.497 597.611 564.41 597.475C564.323 597.341 564.239 597.206 564.152 597.071C564.065 596.937 563.981 596.803 563.894 596.667C563.807 596.533 563.723 596.399 563.636 596.264C563.548 596.13 563.464 595.996 563.377 595.861C563.29 595.727 563.206 595.593 563.119 595.459C563.032 595.325 562.948 595.191 562.861 595.057C562.774 594.923 562.69 594.788 562.603 594.655C562.515 594.521 562.428 594.387 562.344 594.254C562.257 594.12 562.17 593.985 562.086 593.852C561.999 593.718 561.912 593.584 561.828 593.452C561.741 593.318 561.654 593.184 561.57 593.052C561.483 592.918 561.395 592.783 561.311 592.652C561.224 592.518 561.137 592.387 561.05 592.253C560.963 592.118 560.876 591.987 560.788 591.853C560.701 591.719 560.614 591.588 560.527 591.455C560.439 591.32 560.352 591.19 560.265 591.056C560.178 590.922 560.091 590.791 560.003 590.658C559.916 590.524 559.829 590.393 559.742 590.26C559.655 590.126 559.568 589.995 559.48 589.863C559.393 589.728 559.306 589.598 559.219 589.465C559.131 589.331 559.044 589.201 558.957 589.069C558.87 588.938 558.783 588.804 558.696 588.672C556.362 585.134 554.003 581.615 551.637 578.109C550.525 576.461 546.807 570.977 545.695 569.329C543.928 566.718 542.167 564.11 540.417 561.496C540.429 561.514 539.422 560.006 539.434 560.024C538.554 558.703 537.855 557.271 537.276 555.793C537.243 555.709 537.212 555.625 537.178 555.545C537.147 555.461 537.115 555.377 537.085 555.293C537.044 555.183 537.001 555.069 536.96 554.958C536.706 554.25 536.476 553.536 536.262 552.819C536.011 551.975 535.783 551.126 535.565 550.278C535.294 549.222 535.038 548.153 534.779 547.099C534.584 546.308 534.388 545.523 534.179 544.741C533.995 544.054 533.802 543.372 533.592 542.696C533.401 542.085 533.199 541.481 532.977 540.884C532.946 540.804 532.916 540.724 532.886 540.643C532.855 540.563 532.822 540.482 532.792 540.405C532.972 540.189 533.058 539.911 533.033 539.631C533.008 539.352 532.874 539.093 532.659 538.913C532.444 538.732 532.166 538.644 531.886 538.668C531.607 538.691 531.348 538.825 531.166 539.039C531.178 539.063 531.19 539.086 531.203 539.113C531.468 539.647 531.706 540.194 531.925 540.748C531.956 540.825 531.985 540.902 532.016 540.979C532.045 541.057 532.076 541.134 532.103 541.214C532.318 541.791 532.516 542.379 532.702 542.976C532.906 543.637 533.097 544.307 533.278 544.986C533.486 545.759 533.679 546.536 533.873 547.325C534.131 548.372 534.389 549.451 534.662 550.513C534.88 551.368 535.113 552.229 535.368 553.088C535.586 553.818 535.821 554.549 536.082 555.276C536.123 555.39 536.166 555.508 536.21 555.622C536.242 555.709 536.273 555.793 536.307 555.88C536.34 555.964 536.374 556.051 536.408 556.138C537.011 557.679 537.741 559.17 538.659 560.547C538.67 560.563 539.631 562.003 539.642 562.02C541.393 564.636 543.156 567.245 544.923 569.857C553.883 583.094 541.904 565.399 550.864 578.636C553.229 582.14 555.587 585.656 557.917 589.19C558.004 589.321 558.092 589.455 558.179 589.587C558.266 589.717 558.353 589.852 558.44 589.983C558.527 590.113 558.615 590.248 558.702 590.379C558.789 590.51 558.876 590.644 558.963 590.776C559.051 590.907 559.138 591.041 559.225 591.173C559.312 591.304 559.4 591.438 559.487 591.571C559.574 591.702 559.661 591.836 559.748 591.969C559.835 592.103 559.923 592.234 560.01 592.368C560.097 592.502 560.184 592.633 560.268 592.767C560.355 592.901 560.442 593.032 560.526 593.166C560.614 593.3 560.701 593.431 560.784 593.565C560.872 593.699 560.959 593.83 561.043 593.965C561.13 594.099 561.214 594.23 561.301 594.365C561.388 594.499 561.472 594.634 561.559 594.766C561.646 594.9 561.73 595.034 561.817 595.167C561.905 595.301 561.988 595.435 562.076 595.568C562.163 595.702 562.247 595.836 562.334 595.969C562.421 596.103 562.505 596.238 562.592 596.371C562.679 596.505 562.763 596.639 562.85 596.773C562.938 596.907 563.021 597.041 563.109 597.176C563.196 597.31 563.28 597.444 563.367 597.579C563.451 597.713 563.538 597.847 563.625 597.982C563.709 598.116 563.796 598.25 563.883 598.385C563.967 598.519 564.054 598.654 564.138 598.789C564.222 598.923 564.309 599.057 564.393 599.193C564.477 599.327 564.564 599.462 564.648 599.598C564.732 599.732 564.819 599.866 564.903 600.003C564.987 600.137 565.074 600.271 565.158 600.408C565.242 600.542 565.329 600.679 565.413 600.813C565.496 600.947 565.584 601.085 565.667 601.219C565.751 601.353 565.838 601.491 565.922 601.625C566.006 601.759 566.09 601.897 566.177 602.032C566.261 602.166 566.345 602.304 566.432 602.439C566.516 602.573 566.6 602.71 566.684 602.846C566.768 602.98 566.851 603.118 566.935 603.254C567.019 603.388 567.103 603.525 567.187 603.661C567.271 603.795 567.354 603.933 567.438 604.069C567.522 604.206 567.606 604.341 567.69 604.477C567.774 604.615 567.857 604.749 567.941 604.886C568.025 605.023 568.109 605.157 568.193 605.294C568.277 605.432 568.361 605.566 568.444 605.704C568.528 605.841 568.612 605.975 568.696 606.113C568.78 606.251 568.864 606.385 568.944 606.523C569.028 606.661 569.108 606.798 569.192 606.933C569.276 607.071 569.357 607.208 569.44 607.344C569.524 607.481 569.605 607.619 569.689 607.755C569.772 607.892 569.853 608.03 569.937 608.166C570.021 608.303 570.101 608.441 570.185 608.578C570.266 608.715 570.349 608.853 570.433 608.989C570.514 609.127 570.597 609.264 570.678 609.402C570.758 609.539 570.842 609.677 570.923 609.814C571.003 609.952 571.087 610.089 571.168 610.227C571.248 610.365 571.332 610.502 571.412 610.64C571.493 610.778 571.577 610.915 571.657 611.054C571.738 611.191 571.818 611.329 571.902 611.467C571.982 611.605 572.063 611.742 572.143 611.881C572.224 612.019 572.304 612.156 572.385 612.295C572.465 612.433 572.546 612.57 572.627 612.71C572.707 612.847 572.787 612.985 572.868 613.125C572.948 613.262 573.029 613.4 573.109 613.54C573.19 613.678 573.27 613.819 573.351 613.956C573.431 614.093 573.512 614.234 573.589 614.372C573.669 614.509 573.747 614.65 573.827 614.788C573.908 614.925 573.985 615.066 574.065 615.204C574.146 615.342 574.223 615.483 574.303 615.621C574.384 615.759 574.461 615.899 574.541 616.038C574.619 616.176 574.699 616.316 574.779 616.455C574.856 616.593 574.937 616.734 575.014 616.873C575.091 617.01 575.172 617.151 575.249 617.291C575.326 617.428 575.407 617.569 575.484 617.709C575.561 617.85 575.638 617.988 575.718 618.128C575.796 618.269 575.873 618.406 575.953 618.547C576.03 618.688 576.107 618.825 576.185 618.966C576.262 619.107 576.339 619.244 576.416 619.385C576.493 619.526 576.57 619.664 576.647 619.805C576.725 619.946 576.802 620.084 576.879 620.225C576.956 620.366 577.033 620.507 577.107 620.645C577.184 620.786 577.258 620.927 577.335 621.066C577.412 621.207 577.486 621.348 577.563 621.487C577.64 621.628 577.714 621.769 577.791 621.908C577.865 622.049 577.942 622.19 578.019 622.33C578.093 622.471 578.17 622.612 578.244 622.751C578.318 622.892 578.395 623.033 578.468 623.173C578.542 623.314 578.62 623.455 578.693 623.596C578.767 623.736 578.841 623.877 578.918 624.018C578.992 624.159 579.066 624.3 579.139 624.441C579.213 624.582 579.287 624.723 579.361 624.864C579.434 625.005 579.508 625.146 579.582 625.288C579.656 625.429 579.73 625.57 579.803 625.711C579.877 625.852 579.951 625.993 580.021 626.135C580.095 626.276 580.166 626.417 580.239 626.56C580.313 626.701 580.384 626.841 580.457 626.984C580.531 627.125 580.602 627.266 580.675 627.409C580.746 627.55 580.82 627.694 580.89 627.835C580.96 627.976 581.034 628.12 581.105 628.26C581.175 628.401 581.249 628.545 581.319 628.686C581.389 628.826 581.46 628.971 581.534 629.112C581.604 629.252 581.675 629.397 581.745 629.538C581.816 629.679 581.886 629.823 581.956 629.965C582.027 630.105 582.097 630.25 582.168 630.391C582.238 630.532 582.308 630.676 582.379 630.818C582.449 630.959 582.52 631.103 582.587 631.246C582.657 631.386 582.724 631.531 582.795 631.673C582.865 631.814 582.932 631.958 583.003 632.101C583.07 632.242 583.14 632.386 583.207 632.529C583.274 632.673 583.345 632.814 583.412 632.957C583.479 633.102 583.549 633.243 583.616 633.386C583.684 633.53 583.75 633.671 583.821 633.815C583.888 633.959 583.955 634.1 584.022 634.245C584.089 634.389 584.156 634.53 584.223 634.674C584.29 634.818 584.358 634.959 584.425 635.104C584.492 635.248 584.559 635.392 584.623 635.534C584.69 635.678 584.753 635.822 584.82 635.964C584.887 636.108 584.951 636.253 585.018 636.395C585.082 636.539 585.149 636.683 585.216 636.826C585.28 636.97 585.347 637.114 585.411 637.257C585.474 637.401 585.541 637.545 585.605 637.688C585.669 637.832 585.733 637.976 585.8 638.119C585.864 638.264 585.927 638.408 585.991 638.552C586.055 638.696 586.118 638.84 586.182 638.984C586.246 639.128 586.309 639.272 586.373 639.416C586.437 639.56 586.501 639.704 586.561 639.849C586.625 639.993 586.685 640.137 586.749 640.282C586.813 640.426 586.873 640.57 586.937 640.715C586.997 640.859 587.061 641.003 587.121 641.148C587.181 641.292 587.245 641.437 587.306 641.582C587.366 641.726 587.426 641.87 587.49 642.016C587.55 642.16 587.611 642.304 587.671 642.45C587.732 642.594 587.792 642.739 587.852 642.885C587.912 643.029 587.973 643.176 588.033 643.319C588.094 643.463 588.154 643.611 588.211 643.754C588.271 643.898 588.328 644.046 588.389 644.189C588.449 644.333 588.506 644.481 588.566 644.625C588.623 644.769 588.684 644.916 588.741 645.06C588.798 645.205 588.858 645.352 588.915 645.496C588.972 645.641 589.029 645.788 589.09 645.932C589.147 646.077 589.204 646.224 589.261 646.369C589.318 646.516 589.375 646.661 589.432 646.806C589.489 646.953 589.546 647.097 589.599 647.243C589.656 647.39 589.71 647.534 589.767 647.68C589.824 647.827 589.878 647.971 589.935 648.117C589.989 648.265 590.045 648.409 590.099 648.555C590.153 648.702 590.21 648.847 590.263 648.993C590.317 649.14 590.371 649.284 590.428 649.431C590.482 649.578 590.535 649.722 590.589 649.869C590.643 650.017 590.696 650.164 590.75 650.308C590.803 650.455 590.857 650.603 590.907 650.746C590.961 650.894 591.015 651.041 591.065 651.185C591.119 651.333 591.169 651.48 591.223 651.625C591.276 651.772 591.327 651.92 591.377 652.064C591.427 652.212 591.481 652.359 591.531 652.504C591.582 652.652 591.635 652.799 591.682 652.944C591.732 653.091 591.783 653.239 591.833 653.384C591.883 653.532 591.934 653.679 591.984 653.825C592.034 653.976 592.085 654.12 592.131 654.266C592.172 654.39 592.215 654.514 592.256 654.636C592.329 654.854 592.376 655.001 592.423 655.147C592.47 655.295 592.521 655.442 592.567 655.589C592.614 655.736 592.661 655.884 592.712 656.031C592.759 656.178 592.806 656.326 592.853 656.472C592.899 656.62 592.947 656.767 592.993 656.914C593.04 657.062 593.087 657.209 593.131 657.357C593.178 657.504 593.221 657.652 593.268 657.799C593.315 657.947 593.359 658.094 593.403 658.242C593.446 658.389 593.493 658.537 593.537 658.685C593.58 658.833 593.627 658.984 593.671 659.128C593.714 659.276 593.758 659.427 593.802 659.572C593.845 659.719 593.889 659.87 593.933 660.015C593.976 660.166 594.02 660.314 594.06 660.459C594.104 660.61 594.144 660.757 594.187 660.903C594.231 661.054 594.271 661.202 594.311 661.348C594.352 661.498 594.395 661.646 594.436 661.792C594.476 661.943 594.519 662.091 594.56 662.237C594.6 662.388 594.64 662.535 594.68 662.682C594.721 662.833 594.761 662.98 594.801 663.127C594.841 663.278 594.881 663.429 594.918 663.572C594.959 663.723 594.996 663.874 595.036 664.018C595.076 664.172 595.113 664.32 595.15 664.464C595.19 664.618 595.227 664.766 595.264 664.91C595.304 665.064 595.341 665.215 595.375 665.357C595.415 665.514 595.452 665.665 595.485 665.803C595.515 665.923 595.591 666.026 595.697 666.09C595.803 666.154 595.93 666.173 596.05 666.143C596.17 666.114 596.274 666.037 596.337 665.931C596.401 665.825 596.424 665.694 596.394 665.574Z" fill="white"/>
<path d="M38.4253 126.635L93.8199 118.72L122.836 131.911L141.301 182.037L165.041 168.846L172.955 94.9761L230.987 87.0614L275.831 121.358L296.933 184.675L286.382 255.907L246.815 311.31L209.885 313.948L194.058 337.692V401.009L201.971 451.135L154.49 506.538L136.025 583.047L154.49 646.364L199.333 709.681L260.004 746.616L323.312 699.128L347.052 659.555L383.982 646.364L415.636 609.429L463.117 590.961L497.409 543.473H536.977L542.252 519.729L631.938 575.132L679.42 606.79L740.09 638.449L769.106 670.108L795.485 614.705L761.193 551.388L700.522 456.412L597.647 369.351L519.356 266.46L492.133 205.781L449.928 123.996L349.69 58.0409L254.728 13.1911L172.955 0L91.1822 29.0205L17.3227 63.3172V102.891L38.4253 126.635Z" fill="#F40122"/>
<path d="M38.4252 126.635L93.8198 118.72L122.836 131.911L141.301 182.037L135.229 234.755L108.183 268.334L85.8007 275.796L79.2723 310.308L94.1941 335.492L115.644 356.945L119.375 373.308L101.655 380.264L80.2049 373.308L44.7656 333.627L17.3226 280.46L-6.10352e-05 217.965L17.3226 162L38.4252 126.635Z" fill="white" fill-opacity="0.968627"/>
<path d="M153.171 175.442L160.41 240.351L131.499 286.056L108.184 292.585L124.038 310.307L201.971 325.82L209.885 313.948L211.704 258.073L180.928 218.898L165.042 168.846L153.171 175.442Z" fill="#1A1A1A"/>
<path opacity="0.778761" d="M38.4252 126.635L17.3226 162L-6.10352e-05 217.965L17.3226 280.46L31.044 307.043L17.3226 257.318L7.62016 220.517L24.3262 164.405L43.4228 136.491L56.5452 124.046" fill="#F1E7E0"/>
<path opacity="0.778761" d="M424.869 920.738L422.405 903.256L414.327 881.712L384.704 887.923L369.3 912.824L351.237 905.742L330.226 901.3L336.501 943.163L378.706 945.801L395.852 912.824L424.869 920.738Z" fill="#335C25"/>
<path opacity="0.778761" d="M467.074 823.124L457.841 862.698L424.869 920.738L422.405 903.256L418.101 889.989L430.475 891.213L438.368 869.173L447.249 816.529L457.116 793.187L482.629 816.529L499.543 825.424C504.4 825.406 521.63 836.534 495.268 808.397L523.762 844.127L467.074 823.124L457.841 862.698L424.869 920.738" fill="#336B25"/>
<path opacity="0.778761" d="M330.226 901.3L307.049 905.742L294.49 889.46L280.718 878.295L235.884 844.89L206.009 837.843L270.555 885.123L296.933 922.058L336.501 943.164L330.226 901.3Z" fill="#336B25"/>
<path opacity="0.778761" d="M509.515 826.262L531.174 826.658L546.127 826.192L549.382 816.529L567.312 746.616L569.95 823.124L526.425 845.549L509.515 826.262Z" fill="#336B25"/>
<path opacity="0.778761" d="M739.15 757.389L762.508 808.441L800.731 839.073L786.182 779.673L779.622 798.746L761.332 769.034L739.15 757.389Z" fill="#336B25"/>
<path opacity="0.778761" d="M793.657 848.505L834.692 927.789L838.308 792.844L819.77 862.923L793.657 848.505Z" fill="#336B25"/>
<path opacity="0.778761" d="M559.393 725.336C560.859 728.323 567.312 746.616 567.312 746.616L625.786 770.819L603.268 715.524L597.079 704.568L596.652 724.274L596.328 739.223L585.117 739.361L565.611 742.967" fill="#336B25"/>
</svg>
