<svg width="40" height="40" viewBox="0 0 40 40" fill="none" xmlns="http://www.w3.org/2000/svg">
<path d="M1 38.4997V30.1663C1 28.5182 1.48874 26.907 2.40442 25.5366C3.3201 24.1662 4.62159 23.0981 6.14431 22.4673C7.66702 21.8366 9.34258 21.6716 10.9591 21.9931C12.5756 22.3147 14.0605 23.1084 15.2259 24.2738C16.3913 25.4392 17.185 26.9241 17.5065 28.5406C17.8281 30.1571 17.6631 31.8327 17.0323 33.3554C16.4016 34.8781 15.3335 36.1796 13.9631 37.0953C12.5927 38.0109 10.9815 38.4997 9.33333 38.4997H1Z" stroke="black" stroke-width="2" stroke-linecap="round" stroke-linejoin="round"/>
<path d="M11.8335 22.25C13.9537 16.6354 17.5504 11.6974 22.244 7.95717C26.9376 4.21696 32.554 1.81333 38.5002 1C37.6868 6.94621 35.2832 12.5625 31.543 17.2561C27.8028 21.9497 22.8648 25.5465 17.2502 27.6667" stroke="black" stroke-width="2" stroke-linecap="round" stroke-linejoin="round"/>
<path d="M16.8335 13.5C20.8818 15.3685 24.1317 18.6184 26.0002 22.6667" stroke="black" stroke-width="2" stroke-linecap="round" stroke-linejoin="round"/>
</svg>
