<svg width="34" height="34" viewBox="0 0 34 34" fill="none" xmlns="http://www.w3.org/2000/svg">
<path fill-rule="evenodd" clip-rule="evenodd" d="M13.9345 0.278509C15.9605 -0.0928365 18.0371 -0.0928365 20.0631 0.278509C20.5279 0.375955 20.9363 0.651121 21.2011 1.04534C21.466 1.43956 21.5663 1.92163 21.4808 2.38879C21.3953 2.85594 21.1307 3.27121 20.7434 3.54605C20.3561 3.82089 19.8767 3.93356 19.4075 3.86004C17.8142 3.56772 16.181 3.56772 14.5876 3.86004C14.3493 3.91092 14.1031 3.91344 13.8637 3.86744C13.6244 3.82144 13.3967 3.72786 13.1942 3.59224C12.9916 3.45663 12.8184 3.28173 12.6847 3.07793C12.551 2.87413 12.4596 2.64557 12.4159 2.40578C12.3721 2.166 12.377 1.91988 12.4301 1.682C12.4833 1.44413 12.5836 1.21934 12.7252 1.02096C12.8669 0.822584 13.0469 0.654653 13.2546 0.527119C13.4623 0.399586 13.6935 0.315046 13.9345 0.278509ZM9.87458 3.47153C10.0108 3.66824 10.107 3.88987 10.1576 4.12376C10.2081 4.35765 10.2121 4.59921 10.1693 4.83464C10.1264 5.07007 10.0376 5.29474 9.90787 5.49582C9.77814 5.6969 9.61006 5.87044 9.41323 6.00653C8.08053 6.92618 6.92618 8.08053 6.00653 9.41323C5.87053 9.60997 5.69711 9.778 5.49618 9.90772C5.29524 10.0374 5.07072 10.1263 4.83544 10.1693C4.60015 10.2122 4.35871 10.2084 4.1249 10.1581C3.89109 10.1077 3.66949 10.0118 3.47275 9.87579C3.07541 9.60113 2.80345 9.17988 2.7167 8.7047C2.67375 8.46942 2.67756 8.22798 2.72792 7.99417C2.77827 7.76036 2.87419 7.53876 3.01018 7.34201C4.17985 5.64762 5.64762 4.17985 7.34201 3.01018C7.7391 2.73575 8.2289 2.63019 8.70378 2.71669C9.17866 2.8032 9.59977 3.0747 9.87458 3.47153ZM24.123 3.47153C24.3978 3.0747 24.8189 2.8032 25.2938 2.71669C25.7687 2.63019 26.2585 2.73575 26.6556 3.01018C28.3499 4.17985 29.8177 5.64762 30.9874 7.34201C31.1234 7.53876 31.2193 7.76036 31.2697 7.99417C31.32 8.22798 31.3238 8.46942 31.2809 8.7047C31.2379 8.93999 31.149 9.16451 31.0193 9.36544C30.8896 9.56638 30.7216 9.73979 30.5248 9.87579C30.3281 10.0118 30.1065 10.1077 29.8727 10.1581C29.6389 10.2084 29.3974 10.2122 29.1621 10.1693C28.9269 10.1263 28.7023 10.0374 28.5014 9.90772C28.3005 9.778 28.127 9.60997 27.991 9.41323C27.0714 8.08053 25.917 6.92618 24.5843 6.00653C24.3875 5.87044 24.2194 5.6969 24.0897 5.49582C23.96 5.29474 23.8712 5.07007 23.8283 4.83464C23.7855 4.59921 23.7894 4.35765 23.84 4.12376C23.8906 3.88987 23.9867 3.66824 24.123 3.47153ZM2.39586 12.4703C2.8707 12.5571 3.29164 12.8289 3.56619 13.2259C3.84074 13.6229 3.94643 14.1127 3.86004 14.5876C3.56742 16.1817 3.56742 17.8158 3.86004 19.4099C3.91092 19.6483 3.91344 19.8945 3.86744 20.1338C3.82144 20.3732 3.72786 20.6009 3.59224 20.8034C3.45663 21.0059 3.28173 21.1792 3.07793 21.3129C2.87413 21.4466 2.64557 21.538 2.40578 21.5817C2.166 21.6254 1.91988 21.6206 1.682 21.5674C1.44413 21.5143 1.21934 21.4139 1.02096 21.2723C0.822584 21.1307 0.654653 20.9507 0.527119 20.743C0.399586 20.5353 0.315046 20.3041 0.278509 20.0631C-0.0928365 18.0371 -0.0928365 15.9605 0.278509 13.9345C0.365326 13.4596 0.63711 13.0387 1.03414 12.7641C1.43116 12.4896 1.92095 12.3839 2.39586 12.4703ZM31.6017 12.4703C31.837 12.4271 32.0786 12.4308 32.3125 12.4811C32.5464 12.5313 32.7681 12.6272 32.965 12.7631C33.1618 12.8991 33.33 13.0725 33.4598 13.2735C33.5896 13.4745 33.6785 13.6991 33.7215 13.9345C34.0928 15.9605 34.0928 18.0371 33.7215 20.0631C33.6346 20.5384 33.3624 20.9596 32.9648 21.2342C32.5673 21.5088 32.077 21.6142 31.6017 21.5273C31.1264 21.4404 30.7052 21.1682 30.4306 20.7706C30.156 20.3731 30.0506 19.8828 30.1375 19.4075C30.4299 17.8142 30.4299 16.181 30.1375 14.5876C30.0511 14.1127 30.1568 13.6229 30.4314 13.2259C30.7059 12.8289 31.1269 12.5571 31.6017 12.4703ZM3.47396 24.123C3.67067 23.9867 3.8923 23.8906 4.12619 23.84C4.36008 23.7894 4.60164 23.7855 4.83707 23.8283C5.0725 23.8712 5.29717 23.96 5.49825 24.0897C5.69933 24.2194 5.87287 24.3875 6.00896 24.5843C6.92861 25.917 8.08296 27.0714 9.41566 27.991C9.6124 28.127 9.78043 28.3005 9.91015 28.5014C10.0399 28.7023 10.1287 28.9269 10.1717 29.1621C10.2147 29.3974 10.2108 29.6389 10.1605 29.8727C10.1101 30.1065 10.0142 30.3281 9.87822 30.5248C9.74222 30.7216 9.5688 30.8896 9.36787 31.0193C9.16693 31.149 8.94241 31.2379 8.70713 31.2809C8.47185 31.3238 8.23041 31.32 7.9966 31.2697C7.76279 31.2193 7.54118 31.1234 7.34444 30.9874C5.65005 29.8177 4.18227 28.3499 3.01261 26.6556C2.73818 26.2585 2.63261 25.7687 2.71912 25.2938C2.80563 24.8189 3.07713 24.3978 3.47396 24.123ZM30.5285 24.123C30.9253 24.3978 31.1968 24.8189 31.2833 25.2938C31.3698 25.7687 31.2643 26.2585 30.9898 26.6556C29.8202 28.3499 28.3524 29.8177 26.658 30.9874C26.2606 31.262 25.7705 31.3676 25.2953 31.2809C24.8201 31.1941 24.3989 30.9222 24.1242 30.5248C23.8495 30.1275 23.744 29.6373 23.8307 29.1621C23.9175 28.687 24.1894 28.2657 24.5868 27.991C25.9195 27.0714 27.0738 25.917 27.9935 24.5843C28.1296 24.3875 28.3031 24.2194 28.5042 24.0897C28.7053 23.96 28.9299 23.8712 29.1654 23.8283C29.4008 23.7855 29.6423 23.7894 29.8762 23.84C30.1101 23.8906 30.3318 23.9867 30.5285 24.123ZM12.4727 31.6017C12.5595 31.1269 12.8313 30.7059 13.2283 30.4314C13.6254 30.1568 14.1151 30.0511 14.5901 30.1375C16.1842 30.4302 17.8183 30.4302 19.4124 30.1375C19.8876 30.0509 20.3778 30.1566 20.7751 30.4315C21.1725 30.7063 21.4443 31.1277 21.5309 31.6029C21.6176 32.0782 21.5118 32.5684 21.237 32.9657C20.9622 33.363 20.5408 33.6349 20.0655 33.7215C18.0395 34.0928 15.9629 34.0928 13.9369 33.7215C13.7015 33.6785 13.4769 33.5896 13.276 33.4598C13.075 33.33 12.9015 33.1618 12.7656 32.965C12.6296 32.7681 12.5337 32.5464 12.4835 32.3125C12.4332 32.0786 12.4296 31.837 12.4727 31.6017Z" fill="black"/>
</svg>
