<svg width="39" height="38" viewBox="0 0 39 38" fill="none" xmlns="http://www.w3.org/2000/svg">
<path d="M19.5 37.75C16.9063 37.75 14.4688 37.2575 12.1875 36.2725C9.90625 35.2875 7.92188 33.9519 6.23438 32.2656C4.54688 30.5794 3.21125 28.595 2.2275 26.3125C1.24375 24.03 0.751252 21.5925 0.750002 19C0.748752 16.4075 1.24125 13.97 2.2275 11.6875C3.21375 9.405 4.54938 7.42063 6.23438 5.73438C7.91938 4.04813 9.90375 2.7125 12.1875 1.7275C14.4713 0.7425 16.9088 0.25 19.5 0.25C22.0913 0.25 24.5288 0.7425 26.8125 1.7275C29.0963 2.7125 31.0806 4.04813 32.7656 5.73438C34.4506 7.42063 35.7869 9.405 36.7744 11.6875C37.7619 13.97 38.2538 16.4075 38.25 19C38.2463 21.5925 37.7538 24.03 36.7725 26.3125C35.7913 28.595 34.4556 30.5794 32.7656 32.2656C31.0756 33.9519 29.0913 35.2881 26.8125 36.2744C24.5338 37.2606 22.0963 37.7525 19.5 37.75Z" fill="black"/>
</svg>
