<svg width="40" height="40" viewBox="0 0 40 40" fill="none" xmlns="http://www.w3.org/2000/svg">
<path d="M20.0005 39.5H20C17.2984 39.5 14.7662 38.9874 12.3982 37.965C10.0203 36.9382 7.95694 35.5485 6.20342 33.7963C4.45009 32.0443 3.0605 29.9811 2.03517 27.6021C1.0139 25.2325 0.501304 22.7001 0.500002 19.9998C0.498701 17.2997 1.01123 14.7676 2.03499 12.3983C3.06307 10.019 4.45283 7.95558 6.20368 6.20342C7.95436 4.45145 10.0176 3.06182 12.398 2.03512C14.7689 1.01255 17.3012 0.5 20 0.5C22.6988 0.5 25.2311 1.01255 27.602 2.03512C29.9824 3.06182 32.0456 4.45145 33.7963 6.20342C35.5472 7.95563 36.9377 10.0191 37.9671 12.3985C38.992 14.7676 39.5039 17.2995 39.5 19.9993C39.4961 22.6999 38.9834 25.2327 37.9646 27.6025C36.942 29.9812 35.5526 32.0441 33.7968 33.796C32.0404 35.5486 29.9767 36.9391 27.6014 37.9671C25.2364 38.9907 22.7045 39.5026 20.0005 39.5Z" stroke="black"/>
</svg>
