<svg width="30" height="31" viewBox="0 0 30 31" fill="none" xmlns="http://www.w3.org/2000/svg">
<path d="M24.1667 15.7607C23.5036 15.7607 22.8677 15.4973 22.3989 15.0285C21.9301 14.5597 21.6667 13.9238 21.6667 13.2607C21.6667 12.5977 21.9301 11.9618 22.3989 11.493C22.8677 11.0241 23.5036 10.7607 24.1667 10.7607C24.8297 10.7607 25.4656 11.0241 25.9344 11.493C26.4033 11.9618 26.6667 12.5977 26.6667 13.2607C26.6667 13.9238 26.4033 14.5597 25.9344 15.0285C25.4656 15.4973 24.8297 15.7607 24.1667 15.7607ZM19.1667 9.09408C18.5036 9.09408 17.8677 8.83068 17.3989 8.36184C16.9301 7.893 16.6667 7.25712 16.6667 6.59408C16.6667 5.93103 16.9301 5.29515 17.3989 4.82631C17.8677 4.35747 18.5036 4.09408 19.1667 4.09408C19.8297 4.09408 20.4656 4.35747 20.9344 4.82631C21.4033 5.29515 21.6667 5.93103 21.6667 6.59408C21.6667 7.25712 21.4033 7.893 20.9344 8.36184C20.4656 8.83068 19.8297 9.09408 19.1667 9.09408ZM10.8333 9.09408C10.1703 9.09408 9.53441 8.83068 9.06557 8.36184C8.59672 7.893 8.33333 7.25712 8.33333 6.59408C8.33333 5.93103 8.59672 5.29515 9.06557 4.82631C9.53441 4.35747 10.1703 4.09408 10.8333 4.09408C11.4964 4.09408 12.1323 4.35747 12.6011 4.82631C13.0699 5.29515 13.3333 5.93103 13.3333 6.59408C13.3333 7.25712 13.0699 7.893 12.6011 8.36184C12.1323 8.83068 11.4964 9.09408 10.8333 9.09408ZM5.83333 15.7607C5.17029 15.7607 4.53441 15.4973 4.06557 15.0285C3.59672 14.5597 3.33333 13.9238 3.33333 13.2607C3.33333 12.5977 3.59672 11.9618 4.06557 11.493C4.53441 11.0241 5.17029 10.7607 5.83333 10.7607C6.49637 10.7607 7.13226 11.0241 7.6011 11.493C8.06994 11.9618 8.33333 12.5977 8.33333 13.2607C8.33333 13.9238 8.06994 14.5597 7.6011 15.0285C7.13226 15.4973 6.49637 15.7607 5.83333 15.7607ZM15 0.760742C11.0218 0.760742 7.20644 2.34109 4.3934 5.15414C1.58035 7.96719 0 11.7825 0 15.7607C0 19.739 1.58035 23.5543 4.3934 26.3673C7.20644 29.1804 11.0218 30.7607 15 30.7607C15.663 30.7607 16.2989 30.4973 16.7678 30.0285C17.2366 29.5597 17.5 28.9238 17.5 28.2607C17.5 27.6107 17.25 27.0274 16.85 26.5941C16.4667 26.1441 16.2167 25.5607 16.2167 24.9274C16.2167 24.2644 16.4801 23.6285 16.9489 23.1596C17.4177 22.6908 18.0536 22.4274 18.7167 22.4274H21.6667C23.8768 22.4274 25.9964 21.5494 27.5592 19.9866C29.122 18.4238 30 16.3042 30 14.0941C30 6.72741 23.2833 0.760742 15 0.760742Z" fill="black"/>
</svg>
