<svg width="25" height="25" viewBox="0 0 25 25" fill="none" xmlns="http://www.w3.org/2000/svg">
<path fill-rule="evenodd" clip-rule="evenodd" d="M19.25 10.9982C18.9989 10.7474 18.6585 10.6065 18.3036 10.6065C17.9487 10.6065 17.6083 10.7474 17.3571 10.9982L13.8393 14.5161V1.33929C13.8393 0.984085 13.6982 0.643433 13.447 0.392268C13.1959 0.141103 12.8552 0 12.5 0C12.1448 0 11.8041 0.141103 11.553 0.392268C11.3018 0.643433 11.1607 0.984085 11.1607 1.33929V14.5161L7.64286 10.9982C7.38897 10.7616 7.05318 10.6329 6.70621 10.639C6.35924 10.6451 6.0282 10.7857 5.78282 11.031C5.53744 11.2764 5.39688 11.6075 5.39076 11.9544C5.38464 12.3014 5.51343 12.6372 5.75 12.8911L11.5536 18.6946L12.5 19.6429L13.4464 18.6964L19.25 12.8929C19.3745 12.7685 19.4732 12.6208 19.5405 12.4583C19.6079 12.2957 19.6426 12.1215 19.6426 11.9455C19.6426 11.7696 19.6079 11.5954 19.5405 11.4328C19.4732 11.2703 19.3745 11.1226 19.25 10.9982ZM2.67857 15.625C2.67857 15.4491 2.64393 15.275 2.57662 15.1125C2.50932 14.95 2.41067 14.8023 2.2863 14.678C2.16194 14.5536 2.0143 14.455 1.85181 14.3877C1.68932 14.3204 1.51516 14.2857 1.33929 14.2857C1.16341 14.2857 0.989253 14.3204 0.826763 14.3877C0.664274 14.455 0.516632 14.5536 0.392268 14.678C0.267904 14.8023 0.169253 14.95 0.101947 15.1125C0.0346417 15.275 -2.62078e-09 15.4491 0 15.625V21.4286C0 22.3758 0.376274 23.2842 1.04605 23.954C1.71582 24.6237 2.62423 25 3.57143 25H21.4286C22.3758 25 23.2842 24.6237 23.954 23.954C24.6237 23.2842 25 22.3758 25 21.4286V15.625C25 15.2698 24.8589 14.9291 24.6077 14.678C24.3566 14.4268 24.0159 14.2857 23.6607 14.2857C23.3055 14.2857 22.9649 14.4268 22.7137 14.678C22.4625 14.9291 22.3214 15.2698 22.3214 15.625V21.4286C22.3214 21.6654 22.2274 21.8925 22.0599 22.0599C21.8925 22.2274 21.6654 22.3214 21.4286 22.3214H3.57143C3.33463 22.3214 3.10753 22.2274 2.94008 22.0599C2.77264 21.8925 2.67857 21.6654 2.67857 21.4286V15.625Z" fill="black"/>
</svg>
