<svg width="35" height="36" viewBox="0 0 35 36" fill="none" xmlns="http://www.w3.org/2000/svg">
<path fill-rule="evenodd" clip-rule="evenodd" d="M34.9984 7.92693C34.9985 9.58977 34.446 11.2055 33.4278 12.5201C32.4096 13.8348 30.9834 14.7737 29.3734 15.1894V19.1769C29.3729 19.674 29.1751 20.1506 28.8234 20.5019L27.5734 21.7519C27.2218 22.1031 26.7452 22.3003 26.2484 22.3003C25.7515 22.3003 25.2749 22.1031 24.9234 21.7519L23.1234 19.9519L11.4309 31.6469C10.6104 32.4666 9.49809 32.927 8.33835 32.9269H6.65835C6.57622 32.9268 6.49486 32.9428 6.41894 32.9741C6.34301 33.0055 6.274 33.0514 6.21585 33.1094L4.44835 34.8769C4.09679 35.2281 3.62023 35.4253 3.12335 35.4253C2.62647 35.4253 2.14991 35.2281 1.79835 34.8769L0.54835 33.6269C0.197224 33.2754 0 32.7988 0 32.3019C0 31.8051 0.197224 31.3285 0.54835 30.9769L2.31585 29.2094C2.37385 29.1513 2.41983 29.0823 2.45114 29.0063C2.48245 28.9304 2.4985 28.8491 2.49835 28.7669V27.0869C2.49835 25.9269 2.95835 24.8144 3.78085 23.9944L15.4709 12.3019L13.6709 10.5019C13.3197 10.1504 13.1225 9.67381 13.1225 9.17693C13.1225 8.68006 13.3197 8.2035 13.6709 7.85193L14.9209 6.60193C15.0951 6.42748 15.302 6.2891 15.5298 6.19472C15.7576 6.10034 16.0018 6.05182 16.2484 6.05193H20.2359C20.6956 4.28772 21.782 2.75128 23.2921 1.72975C24.8022 0.708218 26.6326 0.271503 28.4412 0.501216C30.2498 0.73093 31.9129 1.61135 33.1196 2.97795C34.3264 4.34455 34.9942 6.1038 34.9984 7.92693ZM20.4734 17.3019L18.1234 14.9519L6.43085 26.6469C6.31432 26.7638 6.24872 26.9219 6.24835 27.0869V28.7669C6.24835 28.9119 6.24085 29.0561 6.22585 29.1994C6.36962 29.1857 6.51393 29.1782 6.65835 29.1769H8.33835C8.42048 29.1771 8.50184 29.161 8.57776 29.1297C8.65369 29.0984 8.7227 29.0524 8.78085 28.9944L20.4734 17.3019Z" fill="black"/>
</svg>
