<svg width="35" height="31" viewBox="0 0 35 31" fill="none" xmlns="http://www.w3.org/2000/svg">
<path d="M34.1567 21.4641L34.1954 21.4137C34.2244 21.3748 34.2511 21.3342 34.2755 21.2923L34.3091 21.2354L34.3401 21.1709C34.3504 21.1502 34.3595 21.13 34.3672 21.1101L34.3905 21.0456L34.4137 20.9797L34.4305 20.9151L34.4473 20.8454L34.4589 20.7717L34.468 20.7097C34.468 20.6645 34.4744 20.618 34.4744 20.5728C34.4744 20.5272 34.4723 20.4815 34.468 20.4359C34.4671 20.4144 34.4641 20.3937 34.4589 20.3739C34.4512 20.3442 34.4525 20.3235 34.4473 20.3003L34.4305 20.2305L34.4137 20.1672L34.3905 20.1001C34.3836 20.0777 34.3758 20.0566 34.3672 20.0368L34.3401 19.9761L34.3091 19.9115L34.2755 19.8546L34.2381 19.7926L34.1941 19.7332C34.1786 19.7139 34.1696 19.6984 34.1554 19.6829C34.127 19.6493 34.0973 19.6166 34.0663 19.5847L30.5361 16.0559C30.4076 15.9158 30.2521 15.8031 30.0789 15.7247C29.9057 15.6463 29.7184 15.6038 29.5283 15.5997C29.3382 15.5955 29.1493 15.6299 28.9728 15.7007C28.7964 15.7716 28.6361 15.8773 28.5016 16.0117C28.3671 16.1461 28.2612 16.3064 28.1903 16.4828C28.1194 16.6592 28.0848 16.8481 28.0888 17.0382C28.0928 17.2282 28.1353 17.4156 28.2136 17.5888C28.2918 17.7621 28.4044 17.9177 28.5444 18.0463L28.5457 18.0476L29.663 19.1649H25.3643V11.7443C25.365 11.4179 25.2512 11.1016 25.0427 10.8504L25.044 10.853L25.0388 10.8453C25.0131 10.8143 24.9859 10.7846 24.9574 10.7561L24.9458 10.7445L24.9096 10.7071L14.6202 0.417649C14.5918 0.38915 14.5621 0.361996 14.5311 0.336274L14.5014 0.313024L14.4329 0.261357L14.3981 0.236816C14.3731 0.220455 14.3481 0.205385 14.3231 0.191607L14.2921 0.173524C14.2586 0.155441 14.2237 0.138649 14.1875 0.123149L14.1436 0.105066L14.0726 0.0779407L14.0222 0.0624407L13.9408 0.0417741L13.9046 0.0327324C13.865 0.0258435 13.825 0.0198157 13.7845 0.0146491H1.41165C1.04003 0.0142955 0.683339 0.160882 0.419357 0.422445C0.155374 0.684008 0.00550967 1.03933 0.00244141 1.41094V29.5925C0.00244141 30.3714 0.634067 31.0017 1.41165 31.0017H23.9564C24.7353 31.0017 25.3656 30.3701 25.3656 29.5925V21.9833H29.6656L28.5483 23.1006C28.4082 23.2291 28.2955 23.3847 28.2171 23.5579C28.1387 23.7311 28.0962 23.9184 28.0921 24.1085C28.0879 24.2985 28.1223 24.4875 28.1931 24.6639C28.264 24.8404 28.3698 25.0007 28.5042 25.1351C28.6386 25.2696 28.7988 25.3755 28.9752 25.4465C29.1516 25.5174 29.3405 25.5519 29.5306 25.5479C29.7207 25.5439 29.908 25.5015 30.0812 25.4232C30.2545 25.3449 30.4101 25.2324 30.5387 25.0924L30.54 25.0911L34.0637 21.5751C34.0973 21.5373 34.1274 21.5002 34.1567 21.4641ZM15.0297 4.81061L20.5516 10.3325H15.0297V4.81061ZM22.5446 28.1807H2.81827V2.81757H12.2126V11.7417C12.2126 12.5206 12.8442 13.1509 13.6218 13.1509H22.5459V19.1636H16.3989C16.0251 19.1636 15.6667 19.3121 15.4024 19.5764C15.1381 19.8406 14.9896 20.1991 14.9896 20.5728C14.9896 20.9466 15.1381 21.305 15.4024 21.5693C15.6667 21.8336 16.0251 21.982 16.3989 21.982H16.4402H16.4376H22.5433L22.5446 28.1807Z" fill="black"/>
</svg>
