<svg width="43" height="45" viewBox="0 0 43 45" fill="none" xmlns="http://www.w3.org/2000/svg">
<path d="M18.6025 1.385C18.6025 1.01768 18.4643 0.665395 18.2181 0.405657C17.972 0.145919 17.6381 0 17.29 0C16.9419 0 16.6081 0.145919 16.362 0.405657C16.1158 0.665395 15.9775 1.01768 15.9775 1.385V5.54C15.4394 5.73944 14.9354 6.0663 14.5075 6.52058L1.15416 20.606C0.788261 20.9919 0.498002 21.4501 0.299966 21.9543C0.10193 22.4586 0 22.9991 0 23.545C0 24.0909 0.10193 24.6314 0.299966 25.1357C0.498002 25.6399 0.788261 26.0981 1.15416 26.484L12.5335 38.4919C12.8992 38.878 13.3334 39.1843 13.8113 39.3933C14.2891 39.6023 14.8014 39.7098 15.3187 39.7098C15.836 39.7098 16.3482 39.6023 16.8261 39.3933C17.3039 39.1843 17.7381 38.878 18.1038 38.4919L31.4519 24.4065C31.8178 24.0206 32.1081 23.5624 32.3061 23.0582C32.5041 22.5539 32.6061 22.0134 32.6061 21.4675C32.6061 20.9216 32.5041 20.3811 32.3061 19.8768C32.1081 19.3726 31.8178 18.9144 31.4519 18.5285L20.0752 6.52058C19.6598 6.08184 19.1566 5.74679 18.6025 5.54V1.385ZM29.8087 22.16H3.39591L15.9775 8.88339V12.465C15.9775 12.8323 16.1158 13.1846 16.362 13.4443C16.6081 13.7041 16.9419 13.85 17.29 13.85C17.6381 13.85 17.972 13.7041 18.2181 13.4443C18.4643 13.1846 18.6025 12.8323 18.6025 12.465V8.88339L29.6013 20.4897C29.8051 20.7053 29.9358 20.9858 29.9733 21.2878C30.0108 21.5897 29.9529 21.8963 29.8087 22.16ZM37.0195 26.0158C36.8816 25.7658 36.684 25.5582 36.4463 25.414C36.2086 25.2698 35.9392 25.1939 35.665 25.1939C35.3909 25.1939 35.1215 25.2698 34.8838 25.414C34.6461 25.5582 34.4484 25.7658 34.3105 26.0158L29.974 33.8633C27.4094 38.4975 30.5778 44.32 35.665 44.32C40.7497 44.32 43.9207 38.4975 41.356 33.8633L37.0195 26.0158Z" fill="black"/>
</svg>
