<svg width="66" height="66" viewBox="0 0 66 66" fill="none" xmlns="http://www.w3.org/2000/svg">
<path d="M43.5911 1.2341L45.1136 5.91972C45.5858 7.34491 46.3848 8.63988 47.4468 9.70112C48.5088 10.7624 49.8043 11.5605 51.2299 12.0316L55.9199 13.5541L56.0117 13.5803C56.3731 13.7076 56.6861 13.9438 56.9075 14.2565C57.1289 14.5692 57.2479 14.9428 57.2479 15.326C57.2479 15.7091 57.1289 16.0828 56.9075 16.3955C56.6861 16.7081 56.3731 16.9444 56.0117 17.0716L51.3261 18.5941C49.8998 19.0647 48.6034 19.8625 47.5406 20.9238C46.4778 21.985 45.6781 23.2803 45.2055 24.706L43.683 29.3872C43.5558 29.7486 43.3195 30.0616 43.0068 30.283C42.6942 30.5044 42.3205 30.6234 41.9374 30.6234C41.5542 30.6234 41.1805 30.5044 40.8679 30.283C40.5552 30.0616 40.3189 29.7486 40.1917 29.3872L38.6692 24.706C38.2001 23.2755 37.402 21.9749 36.339 20.9089C35.276 19.8428 33.9778 19.041 32.5486 18.5678L27.8586 17.0453C27.4972 16.9181 27.1842 16.6819 26.9628 16.3692C26.7414 16.0565 26.6225 15.6829 26.6225 15.2997C26.6225 14.9166 26.7414 14.5429 26.9628 14.2302C27.1842 13.9176 27.4972 13.6813 27.8586 13.5541L32.5486 12.0316C33.9571 11.5483 35.2343 10.7448 36.2797 9.68425C37.325 8.6237 38.1101 7.33507 38.573 5.91972L40.0955 1.23847C40.2218 0.87556 40.4579 0.560961 40.7711 0.338334C41.0843 0.115707 41.459 -0.00390625 41.8433 -0.00390625C42.2276 -0.00390625 42.6023 0.115707 42.9155 0.338334C43.2287 0.560961 43.4648 0.871185 43.5911 1.2341ZM65.0505 35.9366L61.7036 34.8516C60.6851 34.5128 59.7595 33.9414 59.0001 33.1828C58.2407 32.4242 57.6684 31.4991 57.3286 30.481L56.2436 27.1385C56.153 26.8801 55.9844 26.6562 55.761 26.4978C55.5376 26.3393 55.2706 26.2543 54.9967 26.2543C54.7229 26.2543 54.4558 26.3393 54.2324 26.4978C54.0091 26.6562 53.8404 26.8801 53.7499 27.1385L52.6561 30.481C52.3238 31.4912 51.7628 32.4112 51.0169 33.1692C50.271 33.9273 49.3602 34.503 48.3555 34.8516L45.0086 35.9366C44.7522 36.0292 44.5305 36.1986 44.3738 36.4217C44.2171 36.6448 44.1331 36.9108 44.1331 37.1835C44.1331 37.4561 44.2171 37.7221 44.3738 37.9453C44.5305 38.1684 44.7522 38.3378 45.0086 38.4303L48.3555 39.5197C49.3754 39.8599 50.3019 40.4332 51.0614 41.1942C51.8209 41.9552 52.3924 42.8829 52.7305 43.9035L53.8155 47.246C53.9061 47.5044 54.0747 47.7283 54.2981 47.8867C54.5214 48.0451 54.7885 48.1302 55.0624 48.1302C55.3362 48.1302 55.6033 48.0451 55.8266 47.8867C56.05 47.7283 56.2187 47.5044 56.3092 47.246L57.3986 43.9035C57.738 42.8858 58.3096 41.961 59.0682 41.2024C59.8268 40.4438 60.7515 39.8722 61.7692 39.5328L65.1161 38.4478C65.3726 38.3553 65.5942 38.1859 65.7509 37.9628C65.9076 37.7396 65.9916 37.4736 65.9916 37.201C65.9916 36.9283 65.9076 36.6623 65.7509 36.4392C65.5942 36.2161 65.3726 36.0467 65.1161 35.9541L65.0505 35.9366ZM51.8074 51.4985C52.7655 52.1503 53.8942 52.5003 55.0711 52.5047C55.4503 52.5047 55.8236 52.4785 56.1911 52.426C53.1098 56.8783 48.9031 60.434 43.9998 62.7309C39.0965 65.0277 33.6719 65.9835 28.2789 65.5009C22.8859 65.0182 17.7172 63.1144 13.2997 59.9833C8.8822 56.8523 5.37376 52.6061 3.13197 47.6774C0.890179 42.7487 -0.00481731 37.3138 0.538196 31.9265C1.08121 26.5392 3.04282 21.3922 6.2231 17.01C9.40338 12.6278 13.6886 9.16717 18.6421 6.98071C23.5956 4.79425 29.0402 3.96017 34.4211 4.56347C34.1586 5.35097 33.7211 6.05097 33.1524 6.61972C32.5836 7.18847 31.8836 7.66972 31.1836 7.88847L27.9636 8.92535C23.6754 9.42371 19.5762 10.9718 16.0291 13.4326C12.482 15.8934 9.59651 19.1909 7.62806 23.0331C5.65961 26.8753 4.669 31.1436 4.74396 35.46C4.81892 39.7765 5.95713 44.0078 8.05779 47.7794C10.1584 51.5509 13.1567 54.7462 16.7871 57.0824C20.4175 59.4185 24.5679 60.8234 28.8709 61.1726C33.1738 61.5217 37.4965 60.8044 41.456 59.0842C45.4156 57.3639 48.8898 54.6938 51.5711 51.3103L51.8074 51.4985ZM35.248 28.4378L36.0442 30.8528C36.3461 31.6885 36.823 32.4716 37.5624 33.211V39.3753C37.5624 39.9555 37.3319 40.5119 36.9217 40.9221C36.5114 41.3324 35.955 41.5628 35.3749 41.5628C34.7947 41.5628 34.2383 41.3324 33.8281 40.9221C33.4178 40.5119 33.1874 39.9555 33.1874 39.3753V30.6253C33.1864 30.0665 33.3994 29.5285 33.7826 29.1217C34.1658 28.715 34.6901 28.4703 35.248 28.4378ZM26.6249 26.2503C26.6249 25.6702 26.3944 25.1138 25.9842 24.7036C25.5739 24.2933 25.0175 24.0628 24.4374 24.0628C23.8572 24.0628 23.3008 24.2933 22.8906 24.7036C22.4803 25.1138 22.2499 25.6702 22.2499 26.2503V43.7503C22.2499 44.3305 22.4803 44.8869 22.8906 45.2971C23.3008 45.7074 23.8572 45.9378 24.4374 45.9378C25.0175 45.9378 25.5739 45.7074 25.9842 45.2971C26.3944 44.8869 26.6249 44.3305 26.6249 43.7503V26.2503ZM15.6874 32.8128C15.6874 32.2327 15.4569 31.6763 15.0467 31.2661C14.6364 30.8558 14.08 30.6253 13.4999 30.6253C12.9197 30.6253 12.3633 30.8558 11.9531 31.2661C11.5428 31.6763 11.3124 32.2327 11.3124 32.8128V37.1878C11.3124 37.768 11.5428 38.3244 11.9531 38.7346C12.3633 39.1449 12.9197 39.3753 13.4999 39.3753C14.08 39.3753 14.6364 39.1449 15.0467 38.7346C15.4569 38.3244 15.6874 37.768 15.6874 37.1878V32.8128Z" fill="black"/>
</svg>
