<svg width="17" height="20" viewBox="0 0 17 20" fill="none" xmlns="http://www.w3.org/2000/svg">
<path d="M16.4711 5.5558L11.2211 0.305801C11.1514 0.236175 11.0686 0.180965 10.9776 0.143324C10.8865 0.105683 10.789 0.0863485 10.6904 0.086426H1.69043C1.2926 0.086426 0.911074 0.244461 0.629769 0.525766C0.348465 0.80707 0.19043 1.1886 0.19043 1.58643V18.0864C0.19043 18.4843 0.348465 18.8658 0.629769 19.1471C0.911074 19.4284 1.2926 19.5864 1.69043 19.5864H15.1904C15.5883 19.5864 15.9698 19.4284 16.2511 19.1471C16.5324 18.8658 16.6904 18.4843 16.6904 18.0864V6.08643C16.6905 5.98791 16.6712 5.89034 16.6335 5.79929C16.5959 5.70824 16.5407 5.6255 16.4711 5.5558ZM11.4404 2.64674L14.1301 5.33643H11.4404V2.64674ZM15.1904 18.0864H1.69043V1.58643H9.94043V6.08643C9.94043 6.28534 10.0194 6.4761 10.1601 6.61676C10.3008 6.75741 10.4915 6.83643 10.6904 6.83643H15.1904V18.0864ZM11.2211 10.3671L9.50074 12.0864L11.2211 13.8058C11.2907 13.8755 11.346 13.9582 11.3837 14.0493C11.4214 14.1403 11.4408 14.2379 11.4408 14.3364C11.4408 14.435 11.4214 14.5326 11.3837 14.6236C11.346 14.7146 11.2907 14.7974 11.2211 14.8671C11.1514 14.9367 11.0686 14.992 10.9776 15.0297C10.8866 15.0674 10.789 15.0868 10.6904 15.0868C10.5919 15.0868 10.4943 15.0674 10.4033 15.0297C10.3122 14.992 10.2295 14.9367 10.1598 14.8671L8.44043 13.1467L6.72106 14.8671C6.65137 14.9367 6.56865 14.992 6.4776 15.0297C6.38656 15.0674 6.28898 15.0868 6.19043 15.0868C6.09188 15.0868 5.9943 15.0674 5.90326 15.0297C5.81221 14.992 5.72949 14.9367 5.6598 14.8671C5.59012 14.7974 5.53485 14.7146 5.49713 14.6236C5.45942 14.5326 5.44001 14.435 5.44001 14.3364C5.44001 14.2379 5.45942 14.1403 5.49713 14.0493C5.53485 13.9582 5.59012 13.8755 5.6598 13.8058L7.38012 12.0864L5.6598 10.3671C5.51907 10.2263 5.44001 10.0354 5.44001 9.83643C5.44001 9.6374 5.51907 9.44653 5.6598 9.3058C5.80053 9.16507 5.99141 9.08601 6.19043 9.08601C6.38945 9.08601 6.58032 9.16507 6.72106 9.3058L8.44043 11.0261L10.1598 9.3058C10.2295 9.23612 10.3122 9.18084 10.4033 9.14313C10.4943 9.10542 10.5919 9.08601 10.6904 9.08601C10.789 9.08601 10.8866 9.10542 10.9776 9.14313C11.0686 9.18084 11.1514 9.23612 11.2211 9.3058C11.2907 9.37548 11.346 9.45821 11.3837 9.54925C11.4214 9.6403 11.4408 9.73788 11.4408 9.83643C11.4408 9.93497 11.4214 10.0326 11.3837 10.1236C11.346 10.2146 11.2907 10.2974 11.2211 10.3671Z" fill="black"/>
</svg>
