<svg width="42" height="46" viewBox="0 0 42 46" fill="none" xmlns="http://www.w3.org/2000/svg">
<path d="M9.50858 13.6508C9.08572 14.2436 8.31572 14.5036 7.64715 14.2165C6.85858 13.8794 6.53286 12.9294 7.02001 12.2236C8.18449 10.5375 9.63952 9.07181 11.3172 7.89507C12.02 7.40222 12.9714 7.72079 13.3157 8.5065C13.6072 9.17221 13.3529 9.94507 12.7643 10.3722C11.5083 11.2812 10.4087 12.3885 9.50858 13.6508ZM6.23715 17.4994C6.90715 17.7851 7.25001 18.5236 7.11286 19.2379C6.7681 21.0253 6.7681 22.862 7.11286 24.6494C7.25001 25.3636 6.90715 26.1022 6.23858 26.3894C5.45001 26.7265 4.53858 26.3079 4.36286 25.4679C4.12052 24.3088 3.99892 23.1278 4.00001 21.9436C4.00001 20.7351 4.12429 19.5565 4.36286 18.4194C4.53858 17.5794 5.44858 17.1622 6.23715 17.4994ZM7.64858 29.6708C8.31715 29.3851 9.08715 29.6451 9.51001 30.2365C10.4309 31.5287 11.5607 32.6585 12.8529 33.5794C13.4957 34.0365 13.7386 34.9036 13.3472 35.5879C12.9543 36.2736 12.0772 36.5165 11.4272 36.0679C9.70397 34.8788 8.21116 33.3864 7.02144 31.6636C6.53572 30.9579 6.85858 30.0079 7.64858 29.6708ZM27.7129 37.7836C27.9043 37.7055 28.0972 37.6236 28.2914 37.5379C28.3448 37.5141 28.3962 37.4879 28.4457 37.4594C29.3367 37.0393 30.1899 36.5431 30.9957 35.9765C31.0586 36.0717 31.1205 36.1684 31.1814 36.2665C31.7523 37.1959 32.2125 38.1888 32.5529 39.2251L32.61 39.4065L32.62 39.4465V39.4508L32.6214 39.4536C32.7182 39.82 32.9566 40.1329 33.2841 40.3236C33.6117 40.5142 34.0015 40.5669 34.3679 40.4701C34.7342 40.3733 35.0472 40.1349 35.2378 39.8074C35.4284 39.4798 35.4811 39.09 35.3843 38.7236V38.7208L35.3829 38.7179L35.3814 38.7108L35.3743 38.6879L35.3529 38.6136L35.2757 38.3594C34.7844 36.8605 34.0852 35.4381 33.1986 34.1336C33.9646 33.3771 34.6577 32.5501 35.2686 31.6636C35.7543 30.9579 35.43 30.0079 34.64 29.6708C33.9729 29.3851 33.2014 29.6451 32.78 30.2365C32.3419 30.8489 31.8595 31.4227 31.3329 31.9579C30.17 30.8779 28.6972 29.9494 26.8557 29.4879C23.8186 28.7051 21.2986 29.0265 19.4843 30.0679C17.6843 31.0994 16.6086 32.8451 16.6557 34.6594C16.7043 36.5508 17.9671 38.1622 20.09 38.7736C21.8871 39.2922 24.2414 39.0979 27.1043 38.0222C27.3091 37.946 27.5119 37.8665 27.7129 37.7836ZM24.2914 35.9122C22.7429 36.2851 21.6229 36.2408 20.8814 36.0279C19.8286 35.7251 19.5243 35.1036 19.5114 34.5851C19.4971 33.9879 19.8629 33.1436 20.9043 32.5465C21.93 31.9594 23.65 31.6108 26.1472 32.2565L26.1572 32.2594C27.2482 32.5393 28.2594 33.0684 29.1114 33.8051C27.7271 34.7354 26.1906 35.4162 24.5714 35.8165C24.4743 35.8413 24.381 35.8732 24.2914 35.9122ZM36.05 26.3894C35.3814 26.1022 35.0386 25.3636 35.1757 24.6494C35.517 22.8617 35.517 21.0256 35.1757 19.2379C35.0386 18.5236 35.3814 17.7851 36.05 17.4994C36.8386 17.1608 37.75 17.5794 37.9257 18.4194C38.4121 20.7442 38.4121 23.1445 37.9257 25.4694C37.75 26.3079 36.8386 26.7279 36.05 26.3894ZM34.6414 14.2165C33.9729 14.5022 33.2029 14.2422 32.78 13.6494C31.88 12.3894 30.78 11.2808 29.5243 10.3708C28.9357 9.94364 28.6814 9.17079 28.9729 8.50507C29.3157 7.71936 30.2686 7.40079 30.9714 7.89222C32.6491 9.06896 34.1041 10.5346 35.2686 12.2208C35.7543 12.9279 35.43 13.8794 34.6414 14.2165ZM25.7 7.07222C25.4072 7.73936 24.6672 8.0765 23.9529 7.93364C22.098 7.56152 20.1877 7.56152 18.3329 7.93364C17.6186 8.0765 16.8786 7.73936 16.5871 7.07222C16.2443 6.2865 16.6543 5.37222 17.4929 5.19079C18.6921 4.93052 19.9157 4.79978 21.1429 4.80079C22.3957 4.80079 23.6172 4.93507 24.7929 5.19079C25.6314 5.37222 26.0429 6.28793 25.6986 7.07222" fill="black"/>
</svg>
