<svg width="39" height="38" viewBox="0 0 39 38" fill="none" xmlns="http://www.w3.org/2000/svg">
<path d="M36.8958 8.42188C36.1875 9.13021 35.5 9.81771 35.4792 10.5052C35.4167 11.1719 36.125 11.8594 36.7917 12.5052C37.7917 13.5469 38.7708 14.4844 38.7292 15.5052C38.6875 16.526 37.625 17.5885 36.5625 18.6302L27.9583 27.2552L25 24.2969L33.8542 15.4635L31.8542 13.4635L28.8958 16.401L21.0833 8.58854L29.0833 0.609375C29.8958 -0.203125 31.25 -0.203125 32.0208 0.609375L36.8958 5.48438C37.7083 6.25521 37.7083 7.60938 36.8958 8.42188ZM0 29.6927L19.9167 9.75521L27.7292 17.5677L7.8125 37.5052H0V29.6927Z" fill="black"/>
</svg>
