<svg width="42" height="45" viewBox="0 0 42 45" fill="none" xmlns="http://www.w3.org/2000/svg">
<path opacity="0.2" d="M39.8291 14.8625L33.6005 21.4349L21.8403 9.02578L28.069 2.45338C28.384 2.12118 28.8112 1.93457 29.2566 1.93457C29.7019 1.93457 30.1291 2.12118 30.4441 2.45338L39.8291 12.3497C39.986 12.5144 40.1104 12.7102 40.1953 12.9258C40.2803 13.1414 40.324 13.3726 40.324 13.6061C40.324 13.8396 40.2803 14.0708 40.1953 14.2864C40.1104 14.502 39.986 14.6978 39.8291 14.8625Z" fill="black"/>
<path d="M41.0156 11.1018L31.6327 1.19889C31.3207 0.869573 30.9502 0.608343 30.5425 0.430116C30.1348 0.251889 29.6978 0.160156 29.2565 0.160156C28.8152 0.160156 28.3782 0.251889 27.9705 0.430116C27.5628 0.608343 27.1923 0.869573 26.8803 1.19889L0.984928 28.5256C0.671562 28.8536 0.423116 29.2441 0.254034 29.6743C0.084952 30.1046 -0.00139324 30.566 1.69996e-05 31.0317V40.9347C1.69996e-05 41.875 0.35402 42.7768 0.98415 43.4417C1.61428 44.1066 2.46892 44.4801 3.36006 44.4801H12.7451C13.1865 44.4816 13.6238 44.3905 14.0315 44.2121C14.4392 44.0337 14.8093 43.7715 15.1202 43.4409L41.0156 16.1164C41.3277 15.7872 41.5753 15.3963 41.7442 14.9661C41.9131 14.5359 42 14.0748 42 13.6091C42 13.1435 41.9131 12.6823 41.7442 12.2521C41.5753 11.8219 41.3277 11.431 41.0156 11.1018ZM4.05516 30.2983L21.8403 11.5317L25.3452 15.2301L7.56011 33.9944L4.05516 30.2983ZM3.36006 34.5772L9.38503 40.9347H3.36006V34.5772ZM13.4402 40.2012L9.93523 36.5028L27.7203 17.7363L31.2253 21.4346L13.4402 40.2012ZM33.6004 18.9284L24.2154 9.0255L29.2555 3.7073L38.6405 13.608L33.6004 18.9284Z" fill="black"/>
</svg>
