<svg width="49" height="49" viewBox="0 0 49 49" fill="none" xmlns="http://www.w3.org/2000/svg">
<path fill-rule="evenodd" clip-rule="evenodd" d="M24.5001 4.08337C27.1813 4.08336 29.8362 4.61144 32.3133 5.63747C34.7903 6.6635 37.0411 8.16737 38.9369 10.0632C40.8328 11.9591 42.3367 14.2098 43.3627 16.6869C44.3888 19.1639 44.9169 21.8189 44.9169 24.5C44.9169 35.7758 35.776 44.9167 24.5001 44.9167C13.2244 44.9167 4.0835 35.7758 4.0835 24.5C4.0835 13.2243 13.2244 4.08337 24.5001 4.08337ZM26.5419 26.5417H22.4585C17.4039 26.5417 13.0645 29.603 11.1928 33.9729C14.1542 38.1255 19.011 40.8334 24.5001 40.8334C29.9893 40.8334 34.846 38.1255 37.8076 33.9726C35.9359 29.603 31.5964 26.5417 26.5419 26.5417ZM24.5001 10.2084C21.1174 10.2084 18.3751 12.9507 18.3751 16.3334C18.3751 19.7161 21.1174 22.4584 24.5001 22.4584C27.8829 22.4584 30.6251 19.7161 30.6251 16.3334C30.6251 12.9507 27.8829 10.2084 24.5001 10.2084Z" fill="#9747FF"/>
</svg>
