<svg width="40" height="40" viewBox="0 0 40 40" fill="none" xmlns="http://www.w3.org/2000/svg">
<path d="M20 40C22.7667 40 25.3667 39.4747 27.8 38.424C30.2333 37.3733 32.35 35.9487 34.15 34.15C35.95 32.3513 37.3747 30.2347 38.424 27.8C39.4733 25.3653 39.9987 22.7653 40 20C40.0013 17.2347 39.476 14.6347 38.424 12.2C37.372 9.76533 35.9473 7.64866 34.15 5.85C32.3527 4.05133 30.236 2.62667 27.8 1.576C25.364 0.525333 22.764 0 20 0C17.236 0 14.636 0.525333 12.2 1.576C9.76402 2.62667 7.64735 4.05133 5.85002 5.85C4.05268 7.64866 2.62735 9.76533 1.57402 12.2C0.520691 14.6347 -0.00397873 17.2347 2.28882e-05 20C0.00402069 22.7653 0.529354 25.3653 1.57602 27.8C2.62269 30.2347 4.04735 32.3513 5.85002 34.15C7.65268 35.9487 9.76935 37.374 12.2 38.426C14.6307 39.478 17.2307 40.0027 20 40Z" fill="#FF0000"/>
</svg>
