<svg width="40" height="40" viewBox="0 0 40 40" fill="none" xmlns="http://www.w3.org/2000/svg">
<path d="M27.0001 16.6667H16.5001C14.7501 16.6667 13.229 17.2222 11.9367 18.3333C10.6445 19.4444 9.99897 20.8333 10.0001 22.5C10.0012 24.1667 10.6473 25.5556 11.9384 26.6667C13.2295 27.7778 14.7501 28.3333 16.5001 28.3333H26.6667C27.139 28.3333 27.5351 28.4933 27.8551 28.8133C28.1751 29.1333 28.3345 29.5289 28.3334 30C28.3323 30.4711 28.1723 30.8672 27.8534 31.1883C27.5345 31.5094 27.139 31.6689 26.6667 31.6667H16.5001C13.8056 31.6667 11.4929 30.7917 9.56175 29.0417C7.63064 27.2917 6.66564 25.1111 6.66675 22.5C6.66786 19.8889 7.63342 17.7083 9.56342 15.9583C11.4934 14.2083 13.8056 13.3333 16.5001 13.3333H27.0001L23.8334 10.1667C23.5279 9.86111 23.3751 9.47222 23.3751 9C23.3751 8.52778 23.5279 8.13889 23.8334 7.83333C24.139 7.52778 24.5279 7.375 25.0001 7.375C25.4723 7.375 25.8612 7.52778 26.1667 7.83333L32.1667 13.8333C32.3334 14 32.4518 14.1806 32.5218 14.375C32.5918 14.5694 32.6262 14.7778 32.6251 15C32.624 15.2222 32.5895 15.4306 32.5218 15.625C32.454 15.8194 32.3356 16 32.1667 16.1667L26.1667 22.1667C25.8612 22.4722 25.4723 22.625 25.0001 22.625C24.5279 22.625 24.139 22.4722 23.8334 22.1667C23.5279 21.8611 23.3751 21.4722 23.3751 21C23.3751 20.5278 23.5279 20.1389 23.8334 19.8333L27.0001 16.6667Z" fill="black"/>
</svg>
