<svg width="27" height="25" viewBox="0 0 27 25" fill="none" xmlns="http://www.w3.org/2000/svg">
<path d="M21.0001 9.66667H10.5001C8.75008 9.66667 7.22897 10.2222 5.93675 11.3333C4.64453 12.4444 3.99897 13.8333 4.00008 15.5C4.00119 17.1667 4.6473 18.5556 5.93842 19.6667C7.22953 20.7778 8.75008 21.3333 10.5001 21.3333H20.6667C21.139 21.3333 21.5351 21.4933 21.8551 21.8133C22.1751 22.1333 22.3345 22.5289 22.3334 23C22.3323 23.4711 22.1723 23.8672 21.8534 24.1883C21.5345 24.5094 21.139 24.6689 20.6667 24.6667H10.5001C7.80564 24.6667 5.49286 23.7917 3.56175 22.0417C1.63064 20.2917 0.665638 18.1111 0.666749 15.5C0.66786 12.8889 1.63342 10.7083 3.56342 8.95833C5.49342 7.20833 7.80564 6.33333 10.5001 6.33333H21.0001L17.8334 3.16667C17.5279 2.86111 17.3751 2.47222 17.3751 2C17.3751 1.52778 17.5279 1.13889 17.8334 0.833333C18.139 0.527777 18.5279 0.375 19.0001 0.375C19.4723 0.375 19.8612 0.527777 20.1667 0.833333L26.1667 6.83333C26.3334 7 26.4518 7.18056 26.5218 7.375C26.5918 7.56944 26.6262 7.77778 26.6251 8C26.624 8.22222 26.5895 8.43056 26.5218 8.625C26.454 8.81944 26.3356 9 26.1667 9.16667L20.1667 15.1667C19.8612 15.4722 19.4723 15.625 19.0001 15.625C18.5279 15.625 18.139 15.4722 17.8334 15.1667C17.5279 14.8611 17.3751 14.4722 17.3751 14C17.3751 13.5278 17.5279 13.1389 17.8334 12.8333L21.0001 9.66667Z" fill="black"/>
</svg>
