<svg width="25" height="25" viewBox="0 0 25 25" fill="none" xmlns="http://www.w3.org/2000/svg">
<path d="M11.325 22.8334C10.875 22.8334 10.4876 22.6834 10.163 22.3834C9.83831 22.0834 9.64231 21.7167 9.57498 21.2834L9.34998 19.6334C9.13331 19.55 8.92931 19.45 8.73798 19.3334C8.54665 19.2167 8.35898 19.0917 8.17498 18.9584L6.62498 19.6084C6.20831 19.7917 5.79165 19.8084 5.37498 19.6584C4.95831 19.5084 4.63331 19.2417 4.39998 18.8584L3.22498 16.8084C2.99165 16.425 2.92498 16.0167 3.02498 15.5834C3.12498 15.15 3.34998 14.7917 3.69998 14.5084L5.02498 13.5084C5.00831 13.3917 4.99998 13.279 4.99998 13.1704V12.4954C4.99998 12.3874 5.00831 12.275 5.02498 12.1584L3.69998 11.1584C3.34998 10.875 3.12498 10.5167 3.02498 10.0834C2.92498 9.65004 2.99165 9.24171 3.22498 8.85837L4.39998 6.80837C4.63331 6.42504 4.95831 6.15837 5.37498 6.00837C5.79165 5.85837 6.20831 5.87504 6.62498 6.05837L8.17498 6.70837C8.35831 6.57504 8.54998 6.45004 8.74998 6.33337C8.94998 6.21671 9.14998 6.11671 9.34998 6.03337L9.57498 4.38337C9.64165 3.95004 9.83765 3.58337 10.163 3.28337C10.4883 2.98337 10.8756 2.83337 11.325 2.83337H13.675C14.125 2.83337 14.5126 2.98337 14.838 3.28337C15.1633 3.58337 15.359 3.95004 15.425 4.38337L15.65 6.03337C15.8666 6.11671 16.071 6.21671 16.263 6.33337C16.455 6.45004 16.6423 6.57504 16.825 6.70837L18.375 6.05837C18.7916 5.87504 19.2083 5.85837 19.625 6.00837C20.0416 6.15837 20.3666 6.42504 20.6 6.80837L21.775 8.85837C22.0083 9.24171 22.075 9.65004 21.975 10.0834C21.875 10.5167 21.65 10.875 21.3 11.1584L19.975 12.1584C19.9916 12.275 20 12.3877 20 12.4964V13.1704C20 13.279 19.9833 13.3917 19.95 13.5084L21.275 14.5084C21.625 14.7917 21.85 15.15 21.95 15.5834C22.05 16.0167 21.9833 16.425 21.75 16.8084L20.55 18.8584C20.3166 19.2417 19.9916 19.5084 19.575 19.6584C19.1583 19.8084 18.7416 19.7917 18.325 19.6084L16.825 18.9584C16.6416 19.0917 16.45 19.2167 16.25 19.3334C16.05 19.45 15.85 19.55 15.65 19.6334L15.425 21.2834C15.3583 21.7167 15.1626 22.0834 14.838 22.3834C14.5133 22.6834 14.1256 22.8334 13.675 22.8334H11.325ZM11.5 20.8334H13.475L13.825 18.1834C14.3416 18.05 14.821 17.8544 15.263 17.5964C15.705 17.3384 16.109 17.0257 16.475 16.6584L18.95 17.6834L19.925 15.9834L17.775 14.3584C17.8583 14.125 17.9166 13.8794 17.95 13.6214C17.9833 13.3634 18 13.1007 18 12.8334C18 12.566 17.9833 12.3037 17.95 12.0464C17.9166 11.789 17.8583 11.543 17.775 11.3084L19.925 9.68337L18.95 7.98337L16.475 9.03337C16.1083 8.65004 15.7043 8.32937 15.263 8.07137C14.8216 7.81337 14.3423 7.61737 13.825 7.48337L13.5 4.83337H11.525L11.175 7.48337C10.6583 7.61671 10.1793 7.81271 9.73798 8.07137C9.29665 8.33004 8.89231 8.64237 8.52498 9.00837L6.04998 7.98337L5.07498 9.68337L7.22498 11.2834C7.14165 11.5334 7.08331 11.7834 7.04998 12.0334C7.01665 12.2834 6.99998 12.55 6.99998 12.8334C6.99998 13.1 7.01665 13.3584 7.04998 13.6084C7.08331 13.8584 7.14165 14.1084 7.22498 14.3584L5.07498 15.9834L6.04998 17.6834L8.52498 16.6334C8.89165 17.0167 9.29598 17.3377 9.73798 17.5964C10.18 17.855 10.659 18.0507 11.175 18.1834L11.5 20.8334ZM12.55 16.3334C13.5166 16.3334 14.3416 15.9917 15.025 15.3084C15.7083 14.625 16.05 13.8 16.05 12.8334C16.05 11.8667 15.7083 11.0417 15.025 10.3584C14.3416 9.67504 13.5166 9.33337 12.55 9.33337C11.5666 9.33337 10.7376 9.67504 10.063 10.3584C9.38831 11.0417 9.05065 11.8667 9.04998 12.8334C9.04931 13.8 9.38698 14.625 10.063 15.3084C10.739 15.9917 11.568 16.3334 12.55 16.3334Z" fill="white"/>
</svg>
