<svg width="34" height="34" viewBox="0 0 34 34" fill="none" xmlns="http://www.w3.org/2000/svg">
<path d="M0 3.33333C0 2.44928 0.351189 1.60143 0.976311 0.976311C1.60143 0.351189 2.44928 0 3.33333 0H8.33333V3.33333H3.33333V8.33333H0V3.33333ZM33.3333 3.33333V8.33333H30V3.33333H25V0H30C30.8841 0 31.7319 0.351189 32.357 0.976311C32.9821 1.60143 33.3333 2.44928 33.3333 3.33333ZM30 30V25H33.3333V30C33.3333 30.8841 32.9821 31.7319 32.357 32.357C31.7319 32.9821 30.8841 33.3333 30 33.3333H25V30H30ZM0 30V25H3.33333V30H8.33333V33.3333H3.33333C2.44928 33.3333 1.60143 32.9821 0.976311 32.357C0.351189 31.7319 0 30.8841 0 30ZM13.3333 0H20V3.33333H13.3333V0ZM13.3333 30H20V33.3333H13.3333V30ZM30 13.3333H33.3333V20H30V13.3333ZM0 13.3333H3.33333V20H0V13.3333Z" fill="black"/>
</svg>
