<svg width="35" height="33" viewBox="0 0 35 33" fill="none" xmlns="http://www.w3.org/2000/svg">
<g filter="url(#filter0_d_122_884)">
<path d="M10.3332 24.6667C9.86101 24.6667 9.46546 24.5067 9.14657 24.1867C8.82768 23.8667 8.66768 23.4711 8.66657 23C8.66546 22.5289 8.82546 22.1333 9.14657 21.8133C9.46768 21.4933 9.86323 21.3333 10.3332 21.3333H20.4999C22.2499 21.3333 23.771 20.7778 25.0632 19.6667C26.3555 18.5556 27.001 17.1667 26.9999 15.5C26.9988 13.8333 26.3532 12.4444 25.0632 11.3333C23.7732 10.2222 22.2521 9.66667 20.4999 9.66667H9.9999L13.1666 12.8333C13.4721 13.1389 13.6249 13.5278 13.6249 14C13.6249 14.4722 13.4721 14.8611 13.1666 15.1667C12.861 15.4722 12.4721 15.625 11.9999 15.625C11.5277 15.625 11.1388 15.4722 10.8332 15.1667L4.83323 9.16667C4.66657 9 4.54823 8.81944 4.47823 8.625C4.40823 8.43056 4.37435 8.22222 4.37657 8C4.37879 7.77778 4.41379 7.56944 4.48157 7.375C4.54934 7.18055 4.66657 7 4.83323 6.83333L10.8332 0.833333C11.1388 0.527777 11.5277 0.375 11.9999 0.375C12.4721 0.375 12.861 0.527777 13.1666 0.833333C13.4721 1.13889 13.6249 1.52778 13.6249 2C13.6249 2.47222 13.4721 2.86111 13.1666 3.16667L9.9999 6.33333H20.4999C23.1943 6.33333 25.5071 7.20833 27.4382 8.95833C29.3693 10.7083 30.3343 12.8889 30.3332 15.5C30.3321 18.1111 29.3671 20.2917 27.4382 22.0417C25.5093 23.7917 23.1966 24.6667 20.4999 24.6667H10.3332Z" fill="black"/>
</g>
<defs>
<filter id="filter0_d_122_884" x="0.376465" y="0.375" width="33.9568" height="32.292" filterUnits="userSpaceOnUse" color-interpolation-filters="sRGB">
<feFlood flood-opacity="0" result="BackgroundImageFix"/>
<feColorMatrix in="SourceAlpha" type="matrix" values="0 0 0 0 0 0 0 0 0 0 0 0 0 0 0 0 0 0 127 0" result="hardAlpha"/>
<feOffset dy="4"/>
<feGaussianBlur stdDeviation="2"/>
<feComposite in2="hardAlpha" operator="out"/>
<feColorMatrix type="matrix" values="0 0 0 0 0 0 0 0 0 0 0 0 0 0 0 0 0 0 0.25 0"/>
<feBlend mode="normal" in2="BackgroundImageFix" result="effect1_dropShadow_122_884"/>
<feBlend mode="normal" in="SourceGraphic" in2="effect1_dropShadow_122_884" result="shape"/>
</filter>
</defs>
</svg>
