<svg width="27" height="25" viewBox="0 0 27 25" fill="none" xmlns="http://www.w3.org/2000/svg">
<path d="M6.33323 24.6667C5.86101 24.6667 5.46546 24.5067 5.14657 24.1867C4.82768 23.8667 4.66768 23.4711 4.66657 23C4.66546 22.5289 4.82546 22.1333 5.14657 21.8133C5.46768 21.4933 5.86323 21.3333 6.33323 21.3333H16.4999C18.2499 21.3333 19.771 20.7778 21.0632 19.6667C22.3555 18.5556 23.001 17.1667 22.9999 15.5C22.9988 13.8333 22.3532 12.4444 21.0632 11.3333C19.7732 10.2222 18.2521 9.66667 16.4999 9.66667H5.9999L9.16657 12.8333C9.47212 13.1389 9.6249 13.5278 9.6249 14C9.6249 14.4722 9.47212 14.8611 9.16657 15.1667C8.86101 15.4722 8.47212 15.625 7.9999 15.625C7.52768 15.625 7.13879 15.4722 6.83323 15.1667L0.833234 9.16667C0.666567 9 0.548234 8.81944 0.478234 8.625C0.408234 8.43056 0.374345 8.22222 0.376567 8C0.37879 7.77778 0.413789 7.56944 0.481567 7.375C0.549345 7.18055 0.666567 7 0.833234 6.83333L6.83323 0.833333C7.13879 0.527777 7.52768 0.375 7.9999 0.375C8.47212 0.375 8.86101 0.527777 9.16657 0.833333C9.47212 1.13889 9.6249 1.52778 9.6249 2C9.6249 2.47222 9.47212 2.86111 9.16657 3.16667L5.9999 6.33333H16.4999C19.1943 6.33333 21.5071 7.20833 23.4382 8.95833C25.3693 10.7083 26.3343 12.8889 26.3332 15.5C26.3321 18.1111 25.3671 20.2917 23.4382 22.0417C21.5093 23.7917 19.1966 24.6667 16.4999 24.6667H6.33323Z" fill="black"/>
</svg>
