<svg width="25" height="25" viewBox="0 0 25 25" fill="none" xmlns="http://www.w3.org/2000/svg">
<g clip-path="url(#clip0_206_17151)">
<path d="M17.1536 1.17172L17.5712 2.45692C17.7007 2.84783 17.9199 3.20302 18.2112 3.4941C18.5025 3.78519 18.8578 4.00409 19.2488 4.13332L20.5352 4.55092L20.5604 4.55812C20.6596 4.59301 20.7454 4.65781 20.8061 4.74357C20.8669 4.82934 20.8995 4.93183 20.8995 5.03692C20.8995 5.14201 20.8669 5.2445 20.8061 5.33026C20.7454 5.41603 20.6596 5.48083 20.5604 5.51572L19.2752 5.93332C18.884 6.06239 18.5284 6.28122 18.2369 6.57231C17.9454 6.86341 17.7261 7.21868 17.5964 7.60972L17.1788 8.89372C17.1439 8.99284 17.0791 9.0787 16.9934 9.13943C16.9076 9.20016 16.8051 9.23277 16.7 9.23277C16.5949 9.23277 16.4924 9.20016 16.4067 9.13943C16.3209 9.0787 16.2561 8.99284 16.2212 8.89372L15.8024 7.60972C15.6738 7.21781 15.4552 6.86149 15.164 6.56932C14.8727 6.27659 14.5168 6.05628 14.1248 5.92612L12.8396 5.50852C12.7405 5.47363 12.6547 5.40883 12.5939 5.32306C12.5332 5.2373 12.5006 5.13481 12.5006 5.02972C12.5006 4.92463 12.5332 4.82214 12.5939 4.73637C12.6547 4.65061 12.7405 4.58581 12.8396 4.55092L14.1248 4.13332C14.5112 4.00076 14.8615 3.78037 15.1482 3.48948C15.4349 3.19858 15.6503 2.84513 15.7772 2.45692L16.1948 1.17292C16.2295 1.07338 16.2942 0.987088 16.3801 0.926025C16.4661 0.864962 16.5688 0.832153 16.6742 0.832153C16.7796 0.832153 16.8824 0.864962 16.9683 0.926025C17.0542 0.987088 17.119 1.07218 17.1536 1.17172ZM23.0396 10.6901L22.1204 10.3925C21.8415 10.2993 21.5881 10.1424 21.3803 9.93435C21.1724 9.72629 21.0158 9.47273 20.9228 9.19372L20.6228 8.27692C20.598 8.20604 20.5517 8.14463 20.4905 8.10118C20.4292 8.05773 20.3559 8.03439 20.2808 8.03439C20.2057 8.03439 20.1325 8.05773 20.0712 8.10118C20.0099 8.14463 19.9637 8.20604 19.9388 8.27692L19.6412 9.19372C19.55 9.47094 19.3959 9.72335 19.1911 9.93129C18.9863 10.1392 18.7362 10.2971 18.4604 10.3925L17.5424 10.6901C17.4721 10.7155 17.4113 10.762 17.3683 10.8232C17.3253 10.8844 17.3023 10.9573 17.3023 11.0321C17.3023 11.1069 17.3253 11.1799 17.3683 11.2411C17.4113 11.3023 17.4721 11.3487 17.5424 11.3741L18.4604 11.6729C18.7402 11.7662 18.9943 11.9235 19.2026 12.1322C19.4109 12.3409 19.5677 12.5954 19.6604 12.8753L19.958 13.7921C19.9829 13.863 20.0291 13.9244 20.0904 13.9679C20.1517 14.0113 20.2249 14.0346 20.3 14.0346C20.3751 14.0346 20.4484 14.0113 20.5097 13.9679C20.5709 13.9244 20.6172 13.863 20.642 13.7921L20.9408 12.8753C21.0339 12.5962 21.1907 12.3425 21.3988 12.1345C21.6068 11.9264 21.8605 11.7696 22.1396 11.6765L23.0576 11.3789C23.128 11.3535 23.1888 11.3071 23.2317 11.2459C23.2747 11.1847 23.2978 11.1117 23.2978 11.0369C23.2978 10.9621 23.2747 10.8892 23.2317 10.828C23.1888 10.7668 23.128 10.7203 23.0576 10.6949L23.0396 10.6901ZM20.3024 15.2333C20.0364 15.2344 19.7745 15.1675 19.5416 15.0389L16.8308 19.7345C16.7782 19.8257 16.7024 19.9015 16.6112 19.9541C16.52 20.0068 16.4166 20.0345 16.3112 20.0345H8.69123C8.58591 20.0345 8.48245 20.0068 8.39124 19.9541C8.30003 19.9015 8.22429 19.8257 8.17163 19.7345L4.36043 13.1345C4.30777 13.0433 4.28005 12.9398 4.28005 12.8345C4.28005 12.7292 4.30777 12.6257 4.36043 12.5345L8.17163 5.93332C8.22429 5.84211 8.30003 5.76637 8.39124 5.71371C8.48245 5.66105 8.58591 5.63332 8.69123 5.63332H11.408C11.3352 5.44007 11.2986 5.23504 11.3 5.02852C11.3 4.82052 11.3352 4.62212 11.4056 4.43332H8.69123C8.37507 4.43312 8.06443 4.51619 7.79058 4.67419C7.51672 4.83218 7.28931 5.05952 7.13123 5.33332L3.32123 11.9333C3.16325 12.207 3.08008 12.5174 3.08008 12.8333C3.08008 13.1493 3.16325 13.4597 3.32123 13.7333L7.13243 20.3333C7.29041 20.6069 7.51763 20.8342 7.79126 20.9922C8.06488 21.1501 8.37528 21.2333 8.69123 21.2333H16.3112C16.6274 21.2335 16.938 21.1504 17.2119 20.9925C17.4857 20.8345 17.7132 20.6071 17.8712 20.3333L20.8616 15.1517C20.6852 15.2117 20.4956 15.2333 20.3024 15.2333Z" fill="white"/>
</g>
<defs>
<clipPath id="clip0_206_17151">
<rect width="24" height="24" fill="white" transform="translate(0.5 0.833374)"/>
</clipPath>
</defs>
</svg>
